<?xml version="1.0" encoding="iso-8859-1" standalone="no"?> 
<?xml-stylesheet href="funcoes.css" type="text/css"?> 
<svg xmlns="http://www.w3.org/2000/svg" xmlns:xlink="http://www.w3.org/1999/xlink" width="200.16919pt" height="143.0637pt" viewBox="-57.50548 -28.85274 200.16919 143.0637 "> 
<g transform="translate(0, 114.21097 ) scale(1,-1) translate(0,28.85274 )"> 
                </p>
                <g stroke="#000" fill="#000">
 <g stroke-width="0.4">
 <g stroke-width="0.8">
 <path d=" M -56.90549 0.0 L 141.46373 0.0  " fill="none"/>
 <g transform="translate(141.86372,0.0)">
 <g stroke-dasharray="none" stroke-dashoffset="0.0">
 <g stroke-linecap="round">
 <g stroke-linejoin="round">
 <path d=" M -2.56 3.12257 C -2.0923 1.24901 -1.05006 0.3643 0.0 0.0 C -1.05006 -0.3643 -2.0923 -1.24901 -2.56 -3.12257  " fill="none"/>
 </g>
 </g>
 </g>
  </g>
 </g>
 <g stroke-width="0.8">
 <path d=" M 0.0 -28.45274 L 0.0 113.01099  " fill="none"/>
 <g transform="matrix(0.0,1.0,-1.0,0.0,0.0,113.41098)">
 <g stroke-dasharray="none" stroke-dashoffset="0.0">
 <g stroke-linecap="round">
 <g stroke-linejoin="round">
 <path d=" M -2.56 3.12257 C -2.0923 1.24901 -1.05006 0.3643 0.0 0.0 C -1.05006 -0.3643 -2.0923 -1.24901 -2.56 -3.12257  " fill="none"/>
 </g>
 </g>
 </g>
  </g>
 </g>
 <g stroke-width="1.2">
 <g stroke="#4bad31" fill="#4bad31">
 <path d=" M -56.90549 84.97356 L -50.26683 84.87196 L -43.62817 84.74432 L -36.98952 84.58282 L -30.35086 84.37921 L -23.7122 84.12175 L -17.07355 83.79657 L -10.43489 83.38629 L -3.79623 82.86792 L 2.8424 82.21408 L 9.48106 81.38788 L 16.1197 80.3446 L 22.75836 79.02695 L 29.39702 77.36327 L 36.03568 75.26196 L 42.67433 72.60884 L 49.31299 69.25804 L 55.95164 65.0272 L 62.5903 59.68407 L 69.22896 52.93774 L 75.86761 44.41747 L 82.50626 33.65868 L 89.14491 20.07225 L 95.78357 2.91577 L 102.42223 -18.74939  " fill="none"/>
 </g>
 </g>
 <g stroke-width="0.8">
 <g stroke-dasharray="3.0,3.0" stroke-dashoffset="0.0">
 <path d=" M 28.45274 77.62376 L 85.35823 77.62376 L 85.35823 29.00699  " fill="none"/>
 <g transform="matrix(0.0,-1.0,1.0,0.0,85.35823,28.607)">
 <g stroke-dasharray="none" stroke-dashoffset="0.0">
 <g stroke-linecap="round">
 <g stroke-linejoin="round">
 <path d=" M -2.56 3.12257 C -2.0923 1.24901 -1.05006 0.3643 0.0 0.0 C -1.05006 -0.3643 -2.0923 -1.24901 -2.56 -3.12257  " fill="none"/>
 </g>
 </g>
 </g>
  </g>
 </g>
 </g>
 </g>
 </g>
 
                                                       </g> 
</svg> 
