<?xml version="1.0" encoding="iso-8859-1" standalone="no"?> 
<?xml-stylesheet href="funcoes.css" type="text/css"?> 
<svg xmlns="http://www.w3.org/2000/svg" xmlns:xlink="http://www.w3.org/1999/xlink" width="352.95847pt" height="352.50227pt" viewBox="-32.67075 -31.60617 352.95847 352.50227 "> 
<g transform="translate(0, 320.8961 ) scale(1,-1) translate(0,31.60617 )"> 
         </p>
         <g stroke="#000" fill="#000">
 <g stroke-width="0.4">
 <path d=" M 0.0 0.0 M 0.0 0.0 L 314.40506 0.0 M 0.0 12.0925 L 314.40506 12.0925 M 0.0 24.185 L 314.40506 24.185 M 0.0 36.2775 L 314.40506 36.2775 M 0.0 48.37001 L 314.40506 48.37001 M 0.0 60.46251 L 314.40506 60.46251 M 0.0 72.55501 L 314.40506 72.55501 M 0.0 84.6475 L 314.40506 84.6475 M 0.0 96.74002 L 314.40506 96.74002 M 0.0 108.83252 L 314.40506 108.83252 M 0.0 120.92502 L 314.40506 120.92502 M 0.0 133.01752 L 314.40506 133.01752 M 0.0 145.11003 L 314.40506 145.11003 M 0.0 157.20253 L 314.40506 157.20253 M 0.0 169.29503 L 314.40506 169.29503 M 0.0 181.38753 L 314.40506 181.38753 M 0.0 193.48004 L 314.40506 193.48004 M 0.0 205.57254 L 314.40506 205.57254 M 0.0 217.66504 L 314.40506 217.66504 M 0.0 229.75755 L 314.40506 229.75755 M 0.0 241.85005 L 314.40506 241.85005 M 0.0 253.94255 L 314.40506 253.94255 M 0.0 266.03505 L 314.40506 266.03505 M 0.0 278.12756 L 314.40506 278.12756 M 0.0 290.22006 L 314.40506 290.22006 M 0.0 302.31256 L 314.40506 302.31256 M 0.0 314.40082 L 314.40506 314.40082 M 0.0 0.0 L 0.0 314.40506 M 12.0925 0.0 L 12.0925 314.40506 M 24.185 0.0 L 24.185 314.40506 M 36.2775 0.0 L 36.2775 314.40506 M 48.37001 0.0 L 48.37001 314.40506 M 60.46251 0.0 L 60.46251 314.40506 M 72.55501 0.0 L 72.55501 314.40506 M 84.6475 0.0 L 84.6475 314.40506 M 96.74002 0.0 L 96.74002 314.40506 M 108.83252 0.0 L 108.83252 314.40506 M 120.92502 0.0 L 120.92502 314.40506 M 133.01752 0.0 L 133.01752 314.40506 M 145.11003 0.0 L 145.11003 314.40506 M 157.20253 0.0 L 157.20253 314.40506 M 169.29503 0.0 L 169.29503 314.40506 M 181.38753 0.0 L 181.38753 314.40506 M 193.48004 0.0 L 193.48004 314.40506 M 205.57254 0.0 L 205.57254 314.40506 M 217.66504 0.0 L 217.66504 314.40506 M 229.75755 0.0 L 229.75755 314.40506 M 241.85005 0.0 L 241.85005 314.40506 M 253.94255 0.0 L 253.94255 314.40506 M 266.03505 0.0 L 266.03505 314.40506 M 278.12756 0.0 L 278.12756 314.40506 M 290.22006 0.0 L 290.22006 314.40506 M 302.31256 0.0 L 302.31256 314.40506 M 314.40082 0.0 L 314.40082 314.40506 M 314.40506 314.40506  " fill="none"/>
 <path d=" M 4.83691 -9.67384  " fill="none"/>
 <g transform="translate(0.73067,-13.44542)">
 <g fill="#000">
 <text style="stroke:none" transform="scale(1,-1) translate(4.10625,0)" text-anchor="middle"  font-size="10.95"> 
<g fill="#000">
 <g stroke="none"> A</g> </g>
 </text> 
</g>
 </g>
 <path d=" M 16.92941 -9.67384  " fill="none"/>
 <g transform="translate(13.05148,-13.44542)">
 <g fill="#000">
 <text style="stroke:none" transform="scale(1,-1) translate(3.87793,0)" text-anchor="middle"  font-size="10.95"> 
<g fill="#000">
 <g stroke="none"> B </g> </g>
 </text> 
</g>
 </g>
 <path d=" M 29.02193 -9.67384  " fill="none"/>
 <g transform="translate(25.06789,-13.44542)">
 <g fill="#000">
 <text style="stroke:none" transform="scale(1,-1) translate(3.95404,0)" text-anchor="middle"  font-size="10.95"> 
<g fill="#000">
 <g stroke="none"> C </g> </g>
 </text> 
</g>
 </g>
 <path d=" M 41.11443 -9.67384  " fill="none"/>
 <g transform="translate(36.93208,-13.44542)">
 <g fill="#000">
 <text style="stroke:none" transform="scale(1,-1) translate(4.18234,0)" text-anchor="middle"  font-size="10.95"> 
<g fill="#000">
 <g stroke="none"> D</g> </g>
 </text> 
</g>
 </g>
 <path d=" M 53.20692 -9.67384  " fill="none"/>
 <g transform="translate(49.48093,-13.44542)">
 <g fill="#000">
 <text style="stroke:none" transform="scale(1,-1) translate(3.726,0)" text-anchor="middle"  font-size="10.95"> 
<g fill="#000">
 <g stroke="none"> E </g> </g>
 </text> 
</g>
 </g>
 <path d=" M 65.29942 -9.67384  " fill="none"/>
 <g transform="translate(61.72536,-13.44542)">
 <g fill="#000">
 <text style="stroke:none" transform="scale(1,-1) translate(3.57407,0)" text-anchor="middle"  font-size="10.95"> 
<g fill="#000">
 <g stroke="none"> F </g> </g>
 </text> 
</g>
 </g>
 <path d=" M 77.39194 -9.67384  " fill="none"/>
 <g transform="translate(73.09572,-13.44542)">
 <g fill="#000">
 <text style="stroke:none" transform="scale(1,-1) translate(4.29622,0)" text-anchor="middle"  font-size="10.95"> 
<g fill="#000">
 <g stroke="none"> G</g> </g>
 </text> 
</g>
 </g>
 <path d=" M 89.48444 -9.67384  " fill="none"/>
 <g transform="translate(85.37819,-13.44542)">
 <g fill="#000">
 <text style="stroke:none" transform="scale(1,-1) translate(4.10625,0)" text-anchor="middle"  font-size="10.95"> 
<g fill="#000">
 <g stroke="none"> H </g> </g>
 </text> 
</g>
 </g>
 <path d=" M 101.57693 -9.67384  " fill="none"/>
 <g transform="translate(99.59993,-13.44542)">
 <g fill="#000">
 <text style="stroke:none" transform="scale(1,-1) translate(1.977,0)" text-anchor="middle"  font-size="10.95"> 
<g fill="#000">
 <g stroke="none"> I </g> </g>
 </text> 
</g>
 </g>
 <path d=" M 113.66943 -9.67384  " fill="none"/>
 <g transform="translate(110.85583,-13.44542)">
 <g fill="#000">
 <text style="stroke:none" transform="scale(1,-1) translate(2.8136,0)" text-anchor="middle"  font-size="10.95"> 
<g fill="#000">
 <g stroke="none"> J </g> </g>
 </text> 
</g>
 </g>
 <path d=" M 125.76195 -9.67384  " fill="none"/>
 <g transform="translate(121.50351,-13.44542)">
 <g fill="#000">
 <text style="stroke:none" transform="scale(1,-1) translate(4.25844,0)" text-anchor="middle"  font-size="10.95"> 
<g fill="#000">
 <g stroke="none"> K </g> </g>
 </text> 
</g>
 </g>
 <path d=" M 137.85445 -9.67384  " fill="none"/>
 <g transform="translate(134.43259,-13.44542)">
 <g fill="#000">
 <text style="stroke:none" transform="scale(1,-1) translate(3.42186,0)" text-anchor="middle"  font-size="10.95"> 
<g fill="#000">
 <g stroke="none"> L </g> </g>
 </text> 
</g>
 </g>
 <path d=" M 149.94695 -9.67384  " fill="none"/>
 <g transform="translate(144.92802,-13.44542)">
 <g fill="#000">
 <text style="stroke:none" transform="scale(1,-1) translate(5.01892,0)" text-anchor="middle"  font-size="10.95"> 
<g fill="#000">
 <g stroke="none"> M</g> </g>
 </text> 
</g>
 </g>
 <path d=" M 162.03944 -9.67384  " fill="none"/>
 <g transform="translate(157.9332,-13.44542)">
 <g fill="#000">
 <text style="stroke:none" transform="scale(1,-1) translate(4.10625,0)" text-anchor="middle"  font-size="10.95"> 
<g fill="#000">
 <g stroke="none"> N </g> </g>
 </text> 
</g>
 </g>
 <path d=" M 174.13196 -9.67384  " fill="none"/>
 <g transform="translate(169.87352,-13.44542)">
 <g fill="#000">
 <text style="stroke:none" transform="scale(1,-1) translate(4.25844,0)" text-anchor="middle"  font-size="10.95"> 
<g fill="#000">
 <g stroke="none"> O </g> </g>
 </text> 
</g>
 </g>
 <path d=" M 186.22446 -9.67384  " fill="none"/>
 <g transform="translate(182.49846,-13.44542)">
 <g fill="#000">
 <text style="stroke:none" transform="scale(1,-1) translate(3.726,0)" text-anchor="middle"  font-size="10.95"> 
<g fill="#000">
 <g stroke="none"> P </g> </g>
 </text> 
</g>
 </g>
 <path d=" M 198.31697 -9.67384  " fill="none"/>
 <g transform="translate(194.05853,-12.38086)">
 <g fill="#000">
 <text style="stroke:none" transform="scale(1,-1) translate(4.25844,0)" text-anchor="middle"  font-size="10.95"> 
<g fill="#000">
 <g stroke="none"> Q </g> </g>
 </text> 
</g>
 </g>
 <path d=" M 210.40945 -9.67384  " fill="none"/>
 <g transform="translate(206.37932,-13.44542)">
 <g fill="#000">
 <text style="stroke:none" transform="scale(1,-1) translate(4.03014,0)" text-anchor="middle"  font-size="10.95"> 
<g fill="#000">
 <g stroke="none"> R </g> </g>
 </text> 
</g>
 </g>
 <path d=" M 222.50197 -9.67384  " fill="none"/>
 <g transform="translate(219.46034,-13.44542)">
 <g fill="#000">
 <text style="stroke:none" transform="scale(1,-1) translate(3.04163,0)" text-anchor="middle"  font-size="10.95"> 
<g fill="#000">
 <g stroke="none"> S </g> </g>
 </text> 
</g>
 </g>
 <path d=" M 234.59447 -9.67384  " fill="none"/>
 <g transform="translate(230.64043,-13.44542)">
 <g fill="#000">
 <text style="stroke:none" transform="scale(1,-1) translate(3.95404,0)" text-anchor="middle"  font-size="10.95"> 
<g fill="#000">
 <g stroke="none"> T </g> </g>
 </text> 
</g>
 </g>
 <path d=" M 246.68698 -9.67384  " fill="none"/>
 <g transform="translate(242.58073,-13.44542)">
 <g fill="#000">
 <text style="stroke:none" transform="scale(1,-1) translate(4.10625,0)" text-anchor="middle"  font-size="10.95"> 
<g fill="#000">
 <g stroke="none"> U </g> </g>
 </text> 
</g>
 </g>
 <path d=" M 258.77946 -9.67384  " fill="none"/>
 <g transform="translate(254.67322,-13.44542)">
 <g fill="#000">
 <text style="stroke:none" transform="scale(1,-1) translate(4.10625,0)" text-anchor="middle"  font-size="10.95"> 
<g fill="#000">
 <g stroke="none"> V </g> </g>
 </text> 
</g>
 </g>
 <path d=" M 270.87198 -9.67384  " fill="none"/>
 <g transform="translate(265.24478,-13.44542)">
 <g fill="#000">
 <text style="stroke:none" transform="scale(1,-1) translate(5.6272,0)" text-anchor="middle"  font-size="10.95"> 
<g fill="#000">
 <g stroke="none"> W</g> </g>
 </text> 
</g>
 </g>
 <path d=" M 282.96448 -9.67384  " fill="none"/>
 <g transform="translate(278.85823,-13.44542)">
 <g fill="#000">
 <text style="stroke:none" transform="scale(1,-1) translate(4.10625,0)" text-anchor="middle"  font-size="10.95"> 
<g fill="#000">
 <g stroke="none"> X </g> </g>
 </text> 
</g>
 </g>
 <path d=" M 295.05699 -9.67384  " fill="none"/>
 <g transform="translate(290.95074,-13.44542)">
 <g fill="#000">
 <text style="stroke:none" transform="scale(1,-1) translate(4.10625,0)" text-anchor="middle"  font-size="10.95"> 
<g fill="#000">
 <g stroke="none"> Y </g> </g>
 </text> 
</g>
 </g>
 <path d=" M 307.14948 -9.67384  " fill="none"/>
 <g transform="translate(303.80371,-13.44542)">
 <g fill="#000">
 <text style="stroke:none" transform="scale(1,-1) translate(3.34576,0)" text-anchor="middle"  font-size="10.95"> 
<g fill="#000">
 <g stroke="none"> Z </g> </g>
 </text> 
</g>
 </g>
 <path d=" M -9.67384 4.83691  " fill="none"/>
 <g transform="translate(-13.78009,1.06534)">
 <g fill="#000">
 <text style="stroke:none" transform="scale(1,-1) translate(4.10625,0)" text-anchor="middle"  font-size="10.95"> 
<g fill="#000">
 <g stroke="none"> A </g> </g>
 </text> 
</g>
 </g>
 <path d=" M -9.67384 16.92941  " fill="none"/>
 <g transform="translate(-13.55177,13.15784)">
 <g fill="#000">
 <text style="stroke:none" transform="scale(1,-1) translate(3.87793,0)" text-anchor="middle"  font-size="10.95"> 
<g fill="#000">
 <g stroke="none"> B </g> </g>
 </text> 
</g>
 </g>
 <path d=" M -9.67384 29.02193  " fill="none"/>
 <g transform="translate(-13.62788,25.25035)">
 <g fill="#000">
 <text style="stroke:none" transform="scale(1,-1) translate(3.95404,0)" text-anchor="middle"  font-size="10.95"> 
<g fill="#000">
 <g stroke="none"> C </g> </g>
 </text> 
</g>
 </g>
 <path d=" M -9.67384 41.11443  " fill="none"/>
 <g transform="translate(-13.85619,37.34285)">
 <g fill="#000">
 <text style="stroke:none" transform="scale(1,-1) translate(4.18234,0)" text-anchor="middle"  font-size="10.95"> 
<g fill="#000">
 <g stroke="none"> D </g> </g>
 </text> 
</g>
 </g>
 <path d=" M -9.67384 53.20692  " fill="none"/>
 <g transform="translate(-13.39984,49.43535)">
 <g fill="#000">
 <text style="stroke:none" transform="scale(1,-1) translate(3.726,0)" text-anchor="middle"  font-size="10.95"> 
<g fill="#000">
 <g stroke="none"> E </g> </g>
 </text> 
</g>
 </g>
 <path d=" M -9.67384 65.29942  " fill="none"/>
 <g transform="translate(-13.24791,61.52785)">
 <g fill="#000">
 <text style="stroke:none" transform="scale(1,-1) translate(3.57407,0)" text-anchor="middle"  font-size="10.95"> 
<g fill="#000">
 <g stroke="none"> F </g> </g>
 </text> 
</g>
 </g>
 <path d=" M -9.67384 77.39194  " fill="none"/>
 <g transform="translate(-13.97006,73.62036)">
 <g fill="#000">
 <text style="stroke:none" transform="scale(1,-1) translate(4.29622,0)" text-anchor="middle"  font-size="10.95"> 
<g fill="#000">
 <g stroke="none"> G </g> </g>
 </text> 
</g>
 </g>
 <path d=" M -9.67384 89.48444  " fill="none"/>
 <g transform="translate(-13.78009,85.71286)">
 <g fill="#000">
 <text style="stroke:none" transform="scale(1,-1) translate(4.10625,0)" text-anchor="middle"  font-size="10.95"> 
<g fill="#000">
 <g stroke="none"> H </g> </g>
 </text> 
</g>
 </g>
 <path d=" M -9.67384 101.57693  " fill="none"/>
 <g transform="translate(-11.65085,97.80536)">
 <g fill="#000">
 <text style="stroke:none" transform="scale(1,-1) translate(1.977,0)" text-anchor="middle"  font-size="10.95"> 
<g fill="#000">
 <g stroke="none"> I </g> </g>
 </text> 
</g>
 </g>
 <path d=" M -9.67384 113.66943  " fill="none"/>
 <g transform="translate(-12.48744,109.89786)">
 <g fill="#000">
 <text style="stroke:none" transform="scale(1,-1) translate(2.8136,0)" text-anchor="middle"  font-size="10.95"> 
<g fill="#000">
 <g stroke="none"> J </g> </g>
 </text> 
</g>
 </g>
 <path d=" M -9.67384 125.76195  " fill="none"/>
 <g transform="translate(-13.93228,121.99037)">
 <g fill="#000">
 <text style="stroke:none" transform="scale(1,-1) translate(4.25844,0)" text-anchor="middle"  font-size="10.95"> 
<g fill="#000">
 <g stroke="none"> K </g> </g>
 </text> 
</g>
 </g>
 <path d=" M -9.67384 137.85445  " fill="none"/>
 <g transform="translate(-13.0957,134.08287)">
 <g fill="#000">
 <text style="stroke:none" transform="scale(1,-1) translate(3.42186,0)" text-anchor="middle"  font-size="10.95"> 
<g fill="#000">
 <g stroke="none"> L </g> </g>
 </text> 
</g>
 </g>
 <path d=" M -9.67384 149.94695  " fill="none"/>
 <g transform="translate(-14.69276,146.17537)">
 <g fill="#000">
 <text style="stroke:none" transform="scale(1,-1) translate(5.01892,0)" text-anchor="middle"  font-size="10.95"> 
<g fill="#000">
 <g stroke="none"> M </g> </g>
 </text> 
</g>
 </g>
 <path d=" M -9.67384 162.03944  " fill="none"/>
 <g transform="translate(-13.78009,158.26787)">
 <g fill="#000">
 <text style="stroke:none" transform="scale(1,-1) translate(4.10625,0)" text-anchor="middle"  font-size="10.95"> 
<g fill="#000">
 <g stroke="none"> N </g> </g>
 </text> 
</g>
 </g>
 <path d=" M -9.67384 174.13196  " fill="none"/>
 <g transform="translate(-13.93228,170.36038)">
 <g fill="#000">
 <text style="stroke:none" transform="scale(1,-1) translate(4.25844,0)" text-anchor="middle"  font-size="10.95"> 
<g fill="#000">
 <g stroke="none"> O </g> </g>
 </text> 
</g>
 </g>
 <path d=" M -9.67384 186.22446  " fill="none"/>
 <g transform="translate(-13.39984,182.45288)">
 <g fill="#000">
 <text style="stroke:none" transform="scale(1,-1) translate(3.726,0)" text-anchor="middle"  font-size="10.95"> 
<g fill="#000">
 <g stroke="none"> P </g> </g>
 </text> 
</g>
 </g>
 <path d=" M -9.67384 198.31697  " fill="none"/>
 <g transform="translate(-13.93228,195.60995)">
 <g fill="#000">
 <text style="stroke:none" transform="scale(1,-1) translate(4.25844,0)" text-anchor="middle"  font-size="10.95"> 
<g fill="#000">
 <g stroke="none"> Q </g> </g>
 </text> 
</g>
 </g>
 <path d=" M -9.67384 210.40945  " fill="none"/>
 <g transform="translate(-13.70398,206.63788)">
 <g fill="#000">
 <text style="stroke:none" transform="scale(1,-1) translate(4.03014,0)" text-anchor="middle"  font-size="10.95"> 
<g fill="#000">
 <g stroke="none"> R </g> </g>
 </text> 
</g>
 </g>
 <path d=" M -9.67384 222.50197  " fill="none"/>
 <g transform="translate(-12.71547,218.7304)">
 <g fill="#000">
 <text style="stroke:none" transform="scale(1,-1) translate(3.04163,0)" text-anchor="middle"  font-size="10.95"> 
<g fill="#000">
 <g stroke="none"> S </g> </g>
 </text> 
</g>
 </g>
 <path d=" M -9.67384 234.59447  " fill="none"/>
 <g transform="translate(-13.62788,230.82289)">
 <g fill="#000">
 <text style="stroke:none" transform="scale(1,-1) translate(3.95404,0)" text-anchor="middle"  font-size="10.95"> 
<g fill="#000">
 <g stroke="none"> T </g> </g>
 </text> 
</g>
 </g>
 <path d=" M -9.67384 246.68698  " fill="none"/>
 <g transform="translate(-13.78009,242.9154)">
 <g fill="#000">
 <text style="stroke:none" transform="scale(1,-1) translate(4.10625,0)" text-anchor="middle"  font-size="10.95"> 
<g fill="#000">
 <g stroke="none"> U </g> </g>
 </text> 
</g>
 </g>
 <path d=" M -9.67384 258.77946  " fill="none"/>
 <g transform="translate(-13.78009,255.00789)">
 <g fill="#000">
 <text style="stroke:none" transform="scale(1,-1) translate(4.10625,0)" text-anchor="middle"  font-size="10.95"> 
<g fill="#000">
 <g stroke="none"> V </g> </g>
 </text> 
</g>
 </g>
 <path d=" M -9.67384 270.87198  " fill="none"/>
 <g transform="translate(-15.30104,267.1004)">
 <g fill="#000">
 <text style="stroke:none" transform="scale(1,-1) translate(5.6272,0)" text-anchor="middle"  font-size="10.95"> 
<g fill="#000">
 <g stroke="none"> W</g> </g>
 </text> 
</g>
 </g>
 <path d=" M -9.67384 282.96448  " fill="none"/>
 <g transform="translate(-13.78009,279.1929)">
 <g fill="#000">
 <text style="stroke:none" transform="scale(1,-1) translate(4.10625,0)" text-anchor="middle"  font-size="10.95"> 
<g fill="#000">
 <g stroke="none"> X </g> </g>
 </text> 
</g>
 </g>
 <path d=" M -9.67384 295.05699  " fill="none"/>
 <g transform="translate(-13.78009,291.28542)">
 <g fill="#000">
 <text style="stroke:none" transform="scale(1,-1) translate(4.10625,0)" text-anchor="middle"  font-size="10.95"> 
<g fill="#000">
 <g stroke="none"> Y </g> </g>
 </text> 
</g>
 </g>
 <path d=" M -9.67384 307.14948  " fill="none"/>
 <g transform="translate(-13.0196,303.3779)">
 <g fill="#000">
 <text style="stroke:none" transform="scale(1,-1) translate(3.34576,0)" text-anchor="middle"  font-size="10.95"> 
<g fill="#000">
 <g stroke="none"> Z </g> </g>
 </text> 
</g>
 </g>
 <g stroke="#b70d28" fill="#b70d28">
 <path d=" M 133.01752 0.0 L 145.11003 0.0 L 145.11003 12.09248 L 133.01752 12.09248  " stroke="none"/>
 </g>
 <g stroke="#b70d28" fill="#b70d28">
 <path d=" M 145.11003 12.09248 L 157.20253 12.09248 L 157.20253 24.185 L 145.11003 24.185  " stroke="none"/>
 </g>
 <g stroke="#b70d28" fill="#b70d28">
 <path d=" M 157.20253 24.185 L 169.29503 24.185 L 169.29503 36.2775 L 157.20253 36.2775  " stroke="none"/>
 </g>
 <g stroke="#b70d28" fill="#b70d28">
 <path d=" M 169.29503 36.2775 L 181.38753 36.2775 L 181.38753 48.37001 L 169.29503 48.37001  " stroke="none"/>
 </g>
 <g stroke="#b70d28" fill="#b70d28">
 <path d=" M 181.38753 48.37001 L 193.48004 48.37001 L 193.48004 60.4625 L 181.38753 60.4625  " stroke="none"/>
 </g>
 <g stroke="#b70d28" fill="#b70d28">
 <path d=" M 193.48004 60.4625 L 205.57254 60.4625 L 205.57254 72.55501 L 193.48004 72.55501  " stroke="none"/>
 </g>
 <g stroke="#b70d28" fill="#b70d28">
 <path d=" M 205.57254 72.55501 L 217.66504 72.55501 L 217.66504 84.6475 L 205.57254 84.6475  " stroke="none"/>
 </g>
 <g stroke="#b70d28" fill="#b70d28">
 <path d=" M 217.66504 84.6475 L 229.75754 84.6475 L 229.75754 96.74002 L 217.66504 96.74002  " stroke="none"/>
 </g>
 <g stroke="#b70d28" fill="#b70d28">
 <path d=" M 229.75754 96.74002 L 241.85005 96.74002 L 241.85005 108.8325 L 229.75754 108.8325  " stroke="none"/>
 </g>
 <g stroke="#b70d28" fill="#b70d28">
 <path d=" M 241.85005 108.8325 L 253.94255 108.8325 L 253.94255 120.92502 L 241.85005 120.92502  " stroke="none"/>
 </g>
 <g stroke="#b70d28" fill="#b70d28">
 <path d=" M 253.94255 120.92502 L 266.03505 120.92502 L 266.03505 133.01752 L 253.94255 133.01752  " stroke="none"/>
 </g>
 <g stroke="#b70d28" fill="#b70d28">
 <path d=" M 266.03505 133.01752 L 278.12755 133.01752 L 278.12755 145.11003 L 266.03505 145.11003  " stroke="none"/>
 </g>
 <g stroke="#b70d28" fill="#b70d28">
 <path d=" M 278.12755 145.11003 L 290.22006 145.11003 L 290.22006 157.20253 L 278.12755 157.20253  " stroke="none"/>
 </g>
 <g stroke="#b70d28" fill="#b70d28">
 <path d=" M 290.22006 157.20253 L 302.31256 157.20253 L 302.31256 169.29503 L 290.22006 169.29503  " stroke="none"/>
 </g>
 <g stroke="#b70d28" fill="#b70d28">
 <path d=" M 302.31256 169.29503 L 314.40506 169.29503 L 314.40506 181.38753 L 302.31256 181.38753  " stroke="none"/>
 </g>
 <g stroke="#b70d28" fill="#b70d28">
 <path d=" M 0.0 181.38753 L 12.09248 181.38753 L 12.09248 193.48004 L 0.0 193.48004  " stroke="none"/>
 </g>
 <g stroke="#b70d28" fill="#b70d28">
 <path d=" M 12.09248 193.48004 L 24.185 193.48004 L 24.185 205.57254 L 12.09248 205.57254  " stroke="none"/>
 </g>
 <g stroke="#b70d28" fill="#b70d28">
 <path d=" M 24.185 205.57254 L 36.2775 205.57254 L 36.2775 217.66504 L 24.185 217.66504  " stroke="none"/>
 </g>
 <g stroke="#b70d28" fill="#b70d28">
 <path d=" M 36.2775 217.66504 L 48.37001 217.66504 L 48.37001 229.75754 L 36.2775 229.75754  " stroke="none"/>
 </g>
 <g stroke="#b70d28" fill="#b70d28">
 <path d=" M 48.37001 229.75754 L 60.4625 229.75754 L 60.4625 241.85005 L 48.37001 241.85005  " stroke="none"/>
 </g>
 <g stroke="#b70d28" fill="#b70d28">
 <path d=" M 60.4625 241.85005 L 72.55501 241.85005 L 72.55501 253.94255 L 60.4625 253.94255  " stroke="none"/>
 </g>
 <g stroke="#b70d28" fill="#b70d28">
 <path d=" M 72.55501 253.94255 L 84.6475 253.94255 L 84.6475 266.03505 L 72.55501 266.03505  " stroke="none"/>
 </g>
 <g stroke="#b70d28" fill="#b70d28">
 <path d=" M 84.6475 266.03505 L 96.74002 266.03505 L 96.74002 278.12755 L 84.6475 278.12755  " stroke="none"/>
 </g>
 <g stroke="#b70d28" fill="#b70d28">
 <path d=" M 96.74002 278.12755 L 108.8325 278.12755 L 108.8325 290.22006 L 96.74002 290.22006  " stroke="none"/>
 </g>
 <g stroke="#b70d28" fill="#b70d28">
 <path d=" M 108.8325 290.22006 L 120.92502 290.22006 L 120.92502 302.31256 L 108.8325 302.31256  " stroke="none"/>
 </g>
 <g stroke="#b70d28" fill="#b70d28">
 <path d=" M 120.92502 302.31256 L 133.01752 302.31256 L 133.01752 314.40506 L 120.92502 314.40506  " stroke="none"/>
 </g>
 <path d=" M 297.47563 -24.185  " fill="none"/>
 <g transform="translate(278.31314,-27.95657)">
 <g fill="#000">
 <text style="stroke:none" transform="scale(1,-1) translate(19.16249,0)" text-anchor="middle"  font-size="10.95"> 
<g fill="#000">
 <g stroke="none"> alfabeto</g> </g>
 </text> 
</g>
 </g>
 <path d=" M -24.185 297.47563  " fill="none"/>
 <g transform="matrix(0.0,1.0,-1.0,0.0,-21.47798,277.70476)">
 <g fill="#000">
 <text style="stroke:none" transform="scale(1,-1) translate(19.77087,0)" text-anchor="middle"  font-size="10.95"> 
<g fill="#000">
 <g stroke="none"> Código</g> </g>
 </text> 
</g>
 </g>
 </g>
 </g>
 
                                                                                                 </g> 
</svg> 
