<?xml version="1.0" encoding="iso-8859-1" standalone="no"?> 
<?xml-stylesheet href="funcoes.css" type="text/css"?> 
<svg xmlns="http://www.w3.org/2000/svg" xmlns:xlink="http://www.w3.org/1999/xlink" width="460.0pt" height="151.17494pt" viewBox="0.0 0.0 460.0 151.17494 "> 
<g transform="translate(0, 151.17494 ) scale(1,-1) translate(0,0.0 )"> 
</p><g stroke="#000" fill="#000">
 <g stroke-width="0.4">
 <g stroke-width="0.0">
 <g stroke-width="0.0">
 </g>
 <g transform="translate(230.0,75.58746)">
 <g fill="#000">
 <text style="stroke:none" transform="scale(1,-1) translate(0.0,0)" text-anchor="middle"  font-size="10.95"> 
<g fill="#000">
 <g stroke="none"> </g> </g>
 </text> 
</g>
 </g>
 </g>
 <g stroke-width="0.0">
 <g stroke-width="0.0">
 </g>
 <g transform="translate(230.0,74.87616)">
 <g fill="#000">
 <text style="stroke:none" transform="scale(1,-1) translate(0.0,0)" text-anchor="middle"  font-size="10.95"> 
<g fill="#000">
 <g stroke="none"> </g> </g>
 </text> 
</g>
 </g>
 </g>
 <g stroke="#808080" fill="#808080">
 <g stroke-opacity="0.01">
 <g fill-opacity="0.01">
 <path d=" M 1.4796 -4.21092 L 1.4796 136.9486 C 1.4796 143.98851 7.18642 149.69533 14.22633 149.69533 L 464.21092 149.69533 L 464.21092 -4.21092 Z  " stroke="none"/>
 </g>
 </g>
 <g stroke-opacity="0.02">
 <g fill-opacity="0.02">
 <path d=" M 1.82101 -3.8695 L 1.82101 136.9486 C 1.82101 143.79994 7.37498 149.35391 14.22633 149.35391 L 463.8695 149.35391 L 463.8695 -3.8695 Z  " stroke="none"/>
 </g>
 </g>
 <g stroke-opacity="0.04">
 <g fill-opacity="0.04">
 <path d=" M 2.16243 -3.52809 L 2.16243 136.9486 C 2.16243 143.61137 7.56355 149.0125 14.22633 149.0125 L 463.52809 149.0125 L 463.52809 -3.52809 Z  " stroke="none"/>
 </g>
 </g>
 <g stroke-opacity="0.07">
 <g fill-opacity="0.07">
 <path d=" M 2.50385 -3.18668 L 2.50385 136.9486 C 2.50385 143.42282 7.7521 148.67108 14.22633 148.67108 L 463.18668 148.67108 L 463.18668 -3.18668 Z  " stroke="none"/>
 </g>
 </g>
 <g stroke-opacity="0.11">
 <g fill-opacity="0.11">
 <path d=" M 2.84526 -2.84526 L 2.84526 136.9486 C 2.84526 143.23425 7.94067 148.32967 14.22633 148.32967 L 462.84526 148.32967 L 462.84526 -2.84526 Z  " stroke="none"/>
 </g>
 </g>
 <g stroke-opacity="0.11">
 <g fill-opacity="0.11">
 <path d=" M 3.18668 -2.50385 L 3.18668 136.9486 C 3.18668 143.0457 8.12923 147.98825 14.22633 147.98825 L 462.50385 147.98825 L 462.50385 -2.50385 Z  " stroke="none"/>
 </g>
 </g>
 <g stroke-opacity="0.07">
 <g fill-opacity="0.07">
 <path d=" M 3.52809 -2.16243 L 3.52809 136.9486 C 3.52809 142.85713 8.3178 147.64684 14.22633 147.64684 L 462.16243 147.64684 L 462.16243 -2.16243 Z  " stroke="none"/>
 </g>
 </g>
 <g stroke-opacity="0.04">
 <g fill-opacity="0.04">
 <path d=" M 3.8695 -1.82101 L 3.8695 136.9486 C 3.8695 142.66858 8.50635 147.30542 14.22633 147.30542 L 461.82101 147.30542 L 461.82101 -1.82101 Z  " stroke="none"/>
 </g>
 </g>
 <g stroke-opacity="0.02">
 <g fill-opacity="0.02">
 <path d=" M 4.21092 -1.4796 L 4.21092 136.9486 C 4.21092 142.48001 8.69492 146.964 14.22633 146.964 L 461.4796 146.964 L 461.4796 -1.4796 Z  " stroke="none"/>
 </g>
 </g>
 <g stroke-opacity="0.01">
 <g fill-opacity="0.01">
 <path d=" M 4.55234 -1.13818 L 4.55234 136.9486 C 4.55234 142.29146 8.88347 146.62259 14.22633 146.62259 L 461.13818 146.62259 L 461.13818 -1.13818 Z  " stroke="none"/>
 </g>
 </g>
 </g>
 <g fill="#f0eec9">
 <g fill-opacity="1.0">
 <path d=" M 0.0 0.0 L 0.0 141.2165 C 0.0 146.71646 4.45848 151.17494 9.95844 151.17494 L 460.0 151.17494 L 460.0 0.0 Z  " stroke="none"/>
 </g>
 </g>
 <g fill="#f0eec9">
 <g fill-opacity="1.0">
 <path d=" M 1.42262 0.0 L 1.42262 141.2165 C 1.42262 145.93076 5.24419 149.75232 9.95844 149.75232 L 458.57738 149.75232 L 458.57738 0.0 Z  " stroke="none"/>
 </g>
 </g>
 <g fill-opacity="1.0">
 <g transform="translate(12.8037,8.42802)">
 <g fill="#000">
 <text style="stroke:none" transform="scale(1,-1) translate(217.1963,0)" text-anchor="middle"  font-size="10.95"> 
</p><!--l. 185--><p class="noindent" >A                      definição                      de                      uma                      função
<!--l. 186--><math 
 xmlns="http://www.w3.org/1998/Math/MathML"  
display="inline" ><mi 
>f</mi></math>
de
<!--l. 186--><math 
 xmlns="http://www.w3.org/1998/Math/MathML"  
display="inline" ><mi 
>A</mi></math>
em
<!--l. 186--><math 
 xmlns="http://www.w3.org/1998/Math/MathML"  
display="inline" ><mi 
>B</mi></math>
exige                      que                      a                      cada                      elemento
<!--l. 186--><math 
 xmlns="http://www.w3.org/1998/Math/MathML"  
display="inline" ><mi 
>x</mi> <mo 
class="MathClass-rel">∈</mo> <mi 
>A</mi></math>
corresponda                                            uma                                            imagem
<!--l. 186--><math 
 xmlns="http://www.w3.org/1998/Math/MathML"  
display="inline" ><mi 
>y</mi> <mo 
class="MathClass-rel">=</mo> <mi 
>f</mi><mo 
class="MathClass-open">(</mo><mi 
>x</mi><mo 
class="MathClass-close">)</mo> <mo 
class="MathClass-rel">∈</mo> <mi 
>B</mi></math></text> 
</g>
 </g>
 </g>
 </g>
 </g>
       </g> 
</svg> 
