<?xml version="1.0" encoding="iso-8859-1" standalone="no"?> 
<?xml-stylesheet href="funcoes.css" type="text/css"?> 
<svg xmlns="http://www.w3.org/2000/svg" xmlns:xlink="http://www.w3.org/1999/xlink" width="460.0pt" height="104.79216pt" viewBox="0.0 0.0 460.0 104.79216 "> 
<g transform="translate(0, 104.79216 ) scale(1,-1) translate(0,0.0 )"> 
</p><g stroke="#000" fill="#000">
 <g stroke-width="0.4">
 <g stroke-width="0.0">
 <g stroke-width="0.0">
 </g>
 <g transform="translate(230.0,52.39607)">
 <g fill="#000">
 <text style="stroke:none" transform="scale(1,-1) translate(0.0,0)" text-anchor="middle"  font-size="10.95"> 
<g fill="#000">
 <g stroke="none"> </g> </g>
 </text> 
</g>
 </g>
 </g>
 <g stroke-width="0.0">
 <g stroke-width="0.0">
 </g>
 <g transform="translate(230.0,53.10739)">
 <g fill="#000">
 <text style="stroke:none" transform="scale(1,-1) translate(0.0,0)" text-anchor="middle"  font-size="10.95"> 
<g fill="#000">
 <g stroke="none"> </g> </g>
 </text> 
</g>
 </g>
 </g>
 <g stroke="#808080" fill="#808080">
 <g stroke-opacity="0.01">
 <g fill-opacity="0.01">
 <path d=" M 1.4796 -4.21092 L 1.4796 103.31255 L 464.21092 103.31255 L 464.21092 8.53581 C 464.21092 1.4959 458.5041 -4.21092 451.46419 -4.21092 Z  " stroke="none"/>
 </g>
 </g>
 <g stroke-opacity="0.02">
 <g fill-opacity="0.02">
 <path d=" M 1.82101 -3.8695 L 1.82101 102.97113 L 463.8695 102.97113 L 463.8695 8.53581 C 463.8695 1.68446 458.31554 -3.8695 451.46419 -3.8695 Z  " stroke="none"/>
 </g>
 </g>
 <g stroke-opacity="0.04">
 <g fill-opacity="0.04">
 <path d=" M 2.16243 -3.52809 L 2.16243 102.62971 L 463.52809 102.62971 L 463.52809 8.53581 C 463.52809 1.87303 458.12697 -3.52809 451.46419 -3.52809 Z  " stroke="none"/>
 </g>
 </g>
 <g stroke-opacity="0.07">
 <g fill-opacity="0.07">
 <path d=" M 2.50385 -3.18668 L 2.50385 102.2883 L 463.18668 102.2883 L 463.18668 8.53581 C 463.18668 2.06158 457.93842 -3.18668 451.46419 -3.18668 Z  " stroke="none"/>
 </g>
 </g>
 <g stroke-opacity="0.11">
 <g fill-opacity="0.11">
 <path d=" M 2.84526 -2.84526 L 2.84526 101.94688 L 462.84526 101.94688 L 462.84526 8.53581 C 462.84526 2.25015 457.74985 -2.84526 451.46419 -2.84526 Z  " stroke="none"/>
 </g>
 </g>
 <g stroke-opacity="0.11">
 <g fill-opacity="0.11">
 <path d=" M 3.18668 -2.50385 L 3.18668 101.60547 L 462.50385 101.60547 L 462.50385 8.53581 C 462.50385 2.4387 457.5613 -2.50385 451.46419 -2.50385 Z  " stroke="none"/>
 </g>
 </g>
 <g stroke-opacity="0.07">
 <g fill-opacity="0.07">
 <path d=" M 3.52809 -2.16243 L 3.52809 101.26405 L 462.16243 101.26405 L 462.16243 8.53581 C 462.16243 2.62727 457.37273 -2.16243 451.46419 -2.16243 Z  " stroke="none"/>
 </g>
 </g>
 <g stroke-opacity="0.04">
 <g fill-opacity="0.04">
 <path d=" M 3.8695 -1.82101 L 3.8695 100.92264 L 461.82101 100.92264 L 461.82101 8.53581 C 461.82101 2.81583 457.18417 -1.82101 451.46419 -1.82101 Z  " stroke="none"/>
 </g>
 </g>
 <g stroke-opacity="0.02">
 <g fill-opacity="0.02">
 <path d=" M 4.21092 -1.4796 L 4.21092 100.58122 L 461.4796 100.58122 L 461.4796 8.53581 C 461.4796 3.0044 456.9956 -1.4796 451.46419 -1.4796 Z  " stroke="none"/>
 </g>
 </g>
 <g stroke-opacity="0.01">
 <g fill-opacity="0.01">
 <path d=" M 4.55234 -1.13818 L 4.55234 100.2398 L 461.13818 100.2398 L 461.13818 8.53581 C 461.13818 3.19295 456.80705 -1.13818 451.46419 -1.13818 Z  " stroke="none"/>
 </g>
 </g>
 </g>
 <g fill="#f0eec9">
 <g fill-opacity="1.0">
 <path d=" M 0.0 0.0 L 0.0 104.79216 L 460.0 104.79216 L 460.0 9.95844 C 460.0 4.45848 455.54152 0.0 450.04156 0.0 Z  " stroke="none"/>
 </g>
 </g>
 <g fill="#f0eec9">
 <g fill-opacity="1.0">
 <path d=" M 1.42262 1.42262 L 1.42262 104.79214 L 458.57738 104.79214 L 458.57738 9.95844 C 458.57738 5.24419 454.75581 1.42262 450.04156 1.42262 Z  " stroke="none"/>
 </g>
 </g>
 <g fill-opacity="1.0">
 <g transform="translate(12.8037,9.95842)">
 <g fill="#000">
 <text style="stroke:none" transform="scale(1,-1) translate(217.1963,0)" text-anchor="middle"  font-size="10.95"> 
e                      que                      não                      haja                      ambiguidade
na determinação dessa imagem, ou seja, que ela seja única. Asssim, nem toda relação de
<!--l. 186--><math 
 xmlns="http://www.w3.org/1998/Math/MathML"  
display="inline" ><mi 
>A</mi></math>
em <tspan font-family="ec-lmbx" font-size="10">‘</tspan>B é uma função. Por exemplo, a relação que associa a cada pessoa o número de seu
telefone não é função, pois a imagem pode não ser única, ou seja, há ambiguidade: algumas
pessoas têm mais de um número de telefone. E além disso, nem todas as pessoas têm
telefone.                                                                                                            </text> 
</g>
 </g>
 </g>
 </g>
 </g>
        </g> 
</svg> 
