<?xml version="1.0" encoding="iso-8859-1" standalone="no"?> 
<?xml-stylesheet href="funcoes.css" type="text/css"?> 
<svg xmlns="http://www.w3.org/2000/svg" xmlns:xlink="http://www.w3.org/1999/xlink" width="200.53156pt" height="68.07626pt" viewBox="-29.65274 -1.2 200.53156 68.07626 "> 
<g transform="translate(0, 66.87627 ) scale(1,-1) translate(0,1.2 )"> 
        </p><g stroke="#000" fill="#000">
 <g stroke-width="0.4">
 <g fill="#000">
 <path d=" M -28.45274 0.0 M -27.45274 0.0 C -27.45274 0.55229 -27.90045 1.0 -28.45274 1.0 C -29.00504 1.0 -29.45274 0.55229 -29.45274 0.0 C -29.45274 -0.55229 -29.00504 -1.0 -28.45274 -1.0 C -27.90045 -1.0 -27.45274 -0.55229 -27.45274 0.0 Z M -28.45274 0.0  " />
 </g>
 <g fill="#000">
 <path d=" M 0.0 0.0 M 1.0 0.0 C 1.0 0.55229 0.55229 1.0 0.0 1.0 C -0.55229 1.0 -1.0 0.55229 -1.0 0.0 C -1.0 -0.55229 -0.55229 -1.0 0.0 -1.0 C 0.55229 -1.0 1.0 -0.55229 1.0 0.0 Z M 0.0 0.0  " />
 </g>
 <g fill="#000">
 <path d=" M 14.22636 0.0 M 15.22636 0.0 C 15.22636 0.55229 14.77866 1.0 14.22636 1.0 C 13.67407 1.0 13.22636 0.55229 13.22636 0.0 C 13.22636 -0.55229 13.67407 -1.0 14.22636 -1.0 C 14.77866 -1.0 15.22636 -0.55229 15.22636 0.0 Z M 14.22636 0.0  " />
 </g>
 <g fill="#000">
 <path d=" M 18.6226 13.52998 M 19.6226 13.52998 C 19.6226 14.08228 19.1749 14.52998 18.6226 14.52998 C 18.07031 14.52998 17.6226 14.08228 17.6226 13.52998 C 17.6226 12.97769 18.07031 12.52998 18.6226 12.52998 C 19.1749 12.52998 19.6226 12.97769 19.6226 13.52998 Z M 18.6226 13.52998  " />
 </g>
 <g fill="#000">
 <path d=" M 7.11317 21.89223 M 8.11317 21.89223 C 8.11317 22.44452 7.66547 22.89223 7.11317 22.89223 C 6.56088 22.89223 6.11317 22.44452 6.11317 21.89223 C 6.11317 21.33994 6.56088 20.89223 7.11317 20.89223 C 7.66547 20.89223 8.11317 21.33994 8.11317 21.89223 Z M 7.11317 21.89223  " />
 </g>
 <g fill="#000">
 <path d=" M -4.39624 13.52998 M -3.39624 13.52998 C -3.39624 14.08228 -3.84395 14.52998 -4.39624 14.52998 C -4.94853 14.52998 -5.39624 14.08228 -5.39624 13.52998 C -5.39624 12.97769 -4.94853 12.52998 -4.39624 12.52998 C -3.84395 12.52998 -3.39624 12.97769 -3.39624 13.52998 Z M -4.39624 13.52998  " />
 </g>
 <g fill="#000">
 <path d=" M 56.90549 0.0 M 57.90549 0.0 C 57.90549 0.55229 57.45778 1.0 56.90549 1.0 C 56.3532 1.0 55.90549 0.55229 55.90549 0.0 C 55.90549 -0.55229 56.3532 -1.0 56.90549 -1.0 C 57.45778 -1.0 57.90549 -0.55229 57.90549 0.0 Z M 56.90549 0.0  " />
 </g>
 <g fill="#000">
 <path d=" M 71.13185 0.0 M 72.13185 0.0 C 72.13185 0.55229 71.68414 1.0 71.13185 1.0 C 70.57956 1.0 70.13185 0.55229 70.13185 0.0 C 70.13185 -0.55229 70.57956 -1.0 71.13185 -1.0 C 71.68414 -1.0 72.13185 -0.55229 72.13185 0.0 Z M 71.13185 0.0  " />
 </g>
 <g fill="#000">
 <path d=" M 75.52809 13.52998 M 76.52809 13.52998 C 76.52809 14.08228 76.08038 14.52998 75.52809 14.52998 C 74.9758 14.52998 74.52809 14.08228 74.52809 13.52998 C 74.52809 12.97769 74.9758 12.52998 75.52809 12.52998 C 76.08038 12.52998 76.52809 12.97769 76.52809 13.52998 Z M 75.52809 13.52998  " />
 </g>
 <g fill="#000">
 <path d=" M 64.01866 21.89223 M 65.01866 21.89223 C 65.01866 22.44452 64.57095 22.89223 64.01866 22.89223 C 63.46637 22.89223 63.01866 22.44452 63.01866 21.89223 C 63.01866 21.33994 63.46637 20.89223 64.01866 20.89223 C 64.57095 20.89223 65.01866 21.33994 65.01866 21.89223 Z M 64.01866 21.89223  " />
 </g>
 <g fill="#000">
 <path d=" M 52.50923 13.52998 M 53.50923 13.52998 C 53.50923 14.08228 53.06152 14.52998 52.50923 14.52998 C 51.95694 14.52998 51.50923 14.08228 51.50923 13.52998 C 51.50923 12.97769 51.95694 12.52998 52.50923 12.52998 C 53.06152 12.52998 53.50923 12.97769 53.50923 13.52998 Z M 52.50923 13.52998  " />
 </g>
 <g fill="#000">
 <path d=" M 85.35823 0.0 M 86.35823 0.0 C 86.35823 0.55229 85.91052 1.0 85.35823 1.0 C 84.80594 1.0 84.35823 0.55229 84.35823 0.0 C 84.35823 -0.55229 84.80594 -1.0 85.35823 -1.0 C 85.91052 -1.0 86.35823 -0.55229 86.35823 0.0 Z M 85.35823 0.0  " />
 </g>
 <g fill="#000">
 <path d=" M 94.15071 27.05997 M 95.15071 27.05997 C 95.15071 27.61226 94.703 28.05997 94.15071 28.05997 C 93.59842 28.05997 93.15071 27.61226 93.15071 27.05997 C 93.15071 26.50768 93.59842 26.05997 94.15071 26.05997 C 94.703 26.05997 95.15071 26.50768 95.15071 27.05997 Z M 94.15071 27.05997  " />
 </g>
 <g fill="#000">
 <path d=" M 71.13185 43.78447 M 72.13185 43.78447 C 72.13185 44.33676 71.68414 44.78447 71.13185 44.78447 C 70.57956 44.78447 70.13185 44.33676 70.13185 43.78447 C 70.13185 43.23218 70.57956 42.78447 71.13185 42.78447 C 71.68414 42.78447 72.13185 43.23218 72.13185 43.78447 Z M 71.13185 43.78447  " />
 </g>
 <g fill="#000">
 <path d=" M 48.11299 27.05997 M 49.11299 27.05997 C 49.11299 27.61226 48.66528 28.05997 48.11299 28.05997 C 47.5607 28.05997 47.11299 27.61226 47.11299 27.05997 C 47.11299 26.50768 47.5607 26.05997 48.11299 26.05997 C 48.66528 26.05997 49.11299 26.50768 49.11299 27.05997 Z M 48.11299 27.05997  " />
 </g>
 <g fill="#000">
 <path d=" M 113.81097 0.0 M 114.81097 0.0 C 114.81097 0.55229 114.36327 1.0 113.81097 1.0 C 113.25868 1.0 112.81097 0.55229 112.81097 0.0 C 112.81097 -0.55229 113.25868 -1.0 113.81097 -1.0 C 114.36327 -1.0 114.81097 -0.55229 114.81097 0.0 Z M 113.81097 0.0  " />
 </g>
 <g fill="#000">
 <path d=" M 89.75447 13.52998 M 90.75447 13.52998 C 90.75447 14.08228 90.30676 14.52998 89.75447 14.52998 C 89.20218 14.52998 88.75447 14.08228 88.75447 13.52998 C 88.75447 12.97769 89.20218 12.52998 89.75447 12.52998 C 90.30676 12.52998 90.75447 12.97769 90.75447 13.52998 Z M 89.75447 13.52998  " />
 </g>
 <g fill="#000">
 <path d=" M 82.64128 35.42221 M 83.64128 35.42221 C 83.64128 35.9745 83.19357 36.42221 82.64128 36.42221 C 82.08899 36.42221 81.64128 35.9745 81.64128 35.42221 C 81.64128 34.86992 82.08899 34.42221 82.64128 34.42221 C 83.19357 34.42221 83.64128 34.86992 83.64128 35.42221 Z M 82.64128 35.42221  " />
 </g>
 <g fill="#000">
 <path d=" M 59.62242 35.42221 M 60.62242 35.42221 C 60.62242 35.9745 60.17471 36.42221 59.62242 36.42221 C 59.07013 36.42221 58.62242 35.9745 58.62242 35.42221 C 58.62242 34.86992 59.07013 34.42221 59.62242 34.42221 C 60.17471 34.42221 60.62242 34.86992 60.62242 35.42221 Z M 59.62242 35.42221  " />
 </g>
 <g fill="#000">
 <path d=" M 128.03734 0.0 M 129.03734 0.0 C 129.03734 0.55229 128.58963 1.0 128.03734 1.0 C 127.48505 1.0 127.03734 0.55229 127.03734 0.0 C 127.03734 -0.55229 127.48505 -1.0 128.03734 -1.0 C 128.58963 -1.0 129.03734 -0.55229 129.03734 0.0 Z M 128.03734 0.0  " />
 </g>
 <g fill="#000">
 <path d=" M 132.43358 13.52998 M 133.43358 13.52998 C 133.43358 14.08228 132.98587 14.52998 132.43358 14.52998 C 131.88129 14.52998 131.43358 14.08228 131.43358 13.52998 C 131.43358 12.97769 131.88129 12.52998 132.43358 12.52998 C 132.98587 12.52998 133.43358 12.97769 133.43358 13.52998 Z M 132.43358 13.52998  " />
 </g>
 <g fill="#000">
 <path d=" M 120.92415 21.89223 M 121.92415 21.89223 C 121.92415 22.44452 121.47644 22.89223 120.92415 22.89223 C 120.37186 22.89223 119.92415 22.44452 119.92415 21.89223 C 119.92415 21.33994 120.37186 20.89223 120.92415 20.89223 C 121.47644 20.89223 121.92415 21.33994 121.92415 21.89223 Z M 120.92415 21.89223  " />
 </g>
 <g fill="#000">
 <path d=" M 109.41472 13.52998 M 110.41472 13.52998 C 110.41472 14.08228 109.96701 14.52998 109.41472 14.52998 C 108.86243 14.52998 108.41472 14.08228 108.41472 13.52998 C 108.41472 12.97769 108.86243 12.52998 109.41472 12.52998 C 109.96701 12.52998 110.41472 12.97769 110.41472 13.52998 Z M 109.41472 13.52998  " />
 </g>
 <g fill="#000">
 <path d=" M 142.26372 0.0 M 143.26372 0.0 C 143.26372 0.55229 142.81601 1.0 142.26372 1.0 C 141.71143 1.0 141.26372 0.55229 141.26372 0.0 C 141.26372 -0.55229 141.71143 -1.0 142.26372 -1.0 C 142.81601 -1.0 143.26372 -0.55229 143.26372 0.0 Z M 142.26372 0.0  " />
 </g>
 <g fill="#000">
 <path d=" M 151.0562 27.05997 M 152.0562 27.05997 C 152.0562 27.61226 151.60849 28.05997 151.0562 28.05997 C 150.5039 28.05997 150.0562 27.61226 150.0562 27.05997 C 150.0562 26.50768 150.5039 26.05997 151.0562 26.05997 C 151.60849 26.05997 152.0562 26.50768 152.0562 27.05997 Z M 151.0562 27.05997  " />
 </g>
 <g fill="#000">
 <path d=" M 128.03734 43.78447 M 129.03734 43.78447 C 129.03734 44.33676 128.58963 44.78447 128.03734 44.78447 C 127.48505 44.78447 127.03734 44.33676 127.03734 43.78447 C 127.03734 43.23218 127.48505 42.78447 128.03734 42.78447 C 128.58963 42.78447 129.03734 43.23218 129.03734 43.78447 Z M 128.03734 43.78447  " />
 </g>
 <g fill="#000">
 <path d=" M 105.01848 27.05997 M 106.01848 27.05997 C 106.01848 27.61226 105.57077 28.05997 105.01848 28.05997 C 104.46619 28.05997 104.01848 27.61226 104.01848 27.05997 C 104.01848 26.50768 104.46619 26.05997 105.01848 26.05997 C 105.57077 26.05997 106.01848 26.50768 106.01848 27.05997 Z M 105.01848 27.05997  " />
 </g>
 <g fill="#000">
 <path d=" M 146.65996 13.52998 M 147.65996 13.52998 C 147.65996 14.08228 147.21225 14.52998 146.65996 14.52998 C 146.10767 14.52998 145.65996 14.08228 145.65996 13.52998 C 145.65996 12.97769 146.10767 12.52998 146.65996 12.52998 C 147.21225 12.52998 147.65996 12.97769 147.65996 13.52998 Z M 146.65996 13.52998  " />
 </g>
 <g fill="#000">
 <path d=" M 139.54677 35.42221 M 140.54677 35.42221 C 140.54677 35.9745 140.09906 36.42221 139.54677 36.42221 C 138.99448 36.42221 138.54677 35.9745 138.54677 35.42221 C 138.54677 34.86992 138.99448 34.42221 139.54677 34.42221 C 140.09906 34.42221 140.54677 34.86992 140.54677 35.42221 Z M 139.54677 35.42221  " />
 </g>
 <g fill="#000">
 <path d=" M 116.52791 35.42221 M 117.52791 35.42221 C 117.52791 35.9745 117.0802 36.42221 116.52791 36.42221 C 115.97562 36.42221 115.52791 35.9745 115.52791 35.42221 C 115.52791 34.86992 115.97562 34.42221 116.52791 34.42221 C 117.0802 34.42221 117.52791 34.86992 117.52791 35.42221 Z M 116.52791 35.42221  " />
 </g>
 <g fill="#000">
 <path d=" M 156.49008 0.0 M 157.49008 0.0 C 157.49008 0.55229 157.04237 1.0 156.49008 1.0 C 155.93779 1.0 155.49008 0.55229 155.49008 0.0 C 155.49008 -0.55229 155.93779 -1.0 156.49008 -1.0 C 157.04237 -1.0 157.49008 -0.55229 157.49008 0.0 Z M 156.49008 0.0  " />
 </g>
 <g fill="#000">
 <path d=" M 169.67882 40.5904 M 170.67882 40.5904 C 170.67882 41.14268 170.23111 41.5904 169.67882 41.5904 C 169.12653 41.5904 168.67882 41.14268 168.67882 40.5904 C 168.67882 40.0381 169.12653 39.5904 169.67882 39.5904 C 170.23111 39.5904 170.67882 40.0381 170.67882 40.5904 Z M 169.67882 40.5904  " />
 </g>
 <g fill="#000">
 <path d=" M 135.15053 65.67627 M 136.15053 65.67627 C 136.15053 66.22856 135.70282 66.67627 135.15053 66.67627 C 134.59824 66.67627 134.15053 66.22856 134.15053 65.67627 C 134.15053 65.12398 134.59824 64.67627 135.15053 64.67627 C 135.70282 64.67627 136.15053 65.12398 136.15053 65.67627 Z M 135.15053 65.67627  " />
 </g>
 <g fill="#000">
 <path d=" M 100.62222 40.5904 M 101.62222 40.5904 C 101.62222 41.14268 101.17451 41.5904 100.62222 41.5904 C 100.06993 41.5904 99.62222 41.14268 99.62222 40.5904 C 99.62222 40.0381 100.06993 39.5904 100.62222 39.5904 C 101.17451 39.5904 101.62222 40.0381 101.62222 40.5904 Z M 100.62222 40.5904  " />
 </g>
 <g fill="#000">
 <path d=" M 160.88632 13.52998 M 161.88632 13.52998 C 161.88632 14.08228 161.43861 14.52998 160.88632 14.52998 C 160.33403 14.52998 159.88632 14.08228 159.88632 13.52998 C 159.88632 12.97769 160.33403 12.52998 160.88632 12.52998 C 161.43861 12.52998 161.88632 12.97769 161.88632 13.52998 Z M 160.88632 13.52998  " />
 </g>
 <g fill="#000">
 <path d=" M 166.09097 26.77039 M 167.09097 26.77039 C 167.09097 27.32268 166.64326 27.77039 166.09097 27.77039 C 165.53868 27.77039 165.09097 27.32268 165.09097 26.77039 C 165.09097 26.2181 165.53868 25.77039 166.09097 25.77039 C 166.64326 25.77039 167.09097 26.2181 167.09097 26.77039 Z M 166.09097 26.77039  " />
 </g>
 <g fill="#000">
 <path d=" M 158.12727 48.98259 M 159.12727 48.98259 C 159.12727 49.53488 158.67957 49.98259 158.12727 49.98259 C 157.57498 49.98259 157.12727 49.53488 157.12727 48.98259 C 157.12727 48.4303 157.57498 47.98259 158.12727 47.98259 C 158.67957 47.98259 159.12727 48.4303 159.12727 48.98259 Z M 158.12727 48.98259  " />
 </g>
 <g fill="#000">
 <path d=" M 147.23564 58.21532 M 148.23564 58.21532 C 148.23564 58.76761 147.78793 59.21532 147.23564 59.21532 C 146.68335 59.21532 146.23564 58.76761 146.23564 58.21532 C 146.23564 57.66302 146.68335 57.21532 147.23564 57.21532 C 147.78793 57.21532 148.23564 57.66302 148.23564 58.21532 Z M 147.23564 58.21532  " />
 </g>
 <g fill="#000">
 <path d=" M 123.66019 57.32791 M 124.66019 57.32791 C 124.66019 57.8802 124.21248 58.32791 123.66019 58.32791 C 123.1079 58.32791 122.66019 57.8802 122.66019 57.32791 C 122.66019 56.77562 123.1079 56.32791 123.66019 56.32791 C 124.21248 56.32791 124.66019 56.77562 124.66019 57.32791 Z M 123.66019 57.32791  " />
 </g>
 <g fill="#000">
 <path d=" M 112.16943 48.98 M 113.16943 48.98 C 113.16943 49.53229 112.72173 49.98 112.16943 49.98 C 111.61714 49.98 111.16943 49.53229 111.16943 48.98 C 111.16943 48.4277 111.61714 47.98 112.16943 47.98 C 112.72173 47.98 113.16943 48.4277 113.16943 48.98 Z M 112.16943 48.98  " />
 </g>
 </g>
 </g>
                                                </g> 
</svg> 
