<?xml version="1.0" encoding="iso-8859-1" standalone="no"?> 
<?xml-stylesheet href="funcoes.css" type="text/css"?> 
<svg xmlns="http://www.w3.org/2000/svg" xmlns:xlink="http://www.w3.org/1999/xlink" width="237.5351pt" height="238.10222pt" viewBox="-2.59998 242.23782 237.5351 238.10222 "> 
<g transform="translate(0, 480.34004 ) scale(1,-1) translate(0,-242.23782 )"> 
 
</p>
<g stroke="#000" fill="#000">
 <g stroke-width="0.4">
 <path d=" M 0.0 266.74446 L 234.33513 266.74446  " fill="none"/>
 <g transform="translate(234.53513,266.74446)">
 <g stroke-dasharray="none" stroke-dashoffset="0.0">
 <g stroke-linecap="round">
 <g stroke-linejoin="round">
 <path d=" M -2.07999 2.39998 C -1.69998 0.95998 -0.85318 0.28 0.0 0.0 C -0.85318 -0.28 -1.69998 -0.95998 -2.07999 -2.39998  " fill="none"/>
 </g>
 </g>
 </g>
  </g>
 <g transform="matrix(0.75,0.0,0.0,0.75,174.99907,247.02814)">
 <g fill="#000">
 <text style="stroke:none" transform="scale(1,-1) translate(37.89925,0)" text-anchor="middle"  font-size="10.95"> 
<g fill="#000">
 <g stroke="none"> consumo (kWh)</g> </g>
 </text> 
</g>
 </g>
 <path d=" M 0.0 266.74446 L 0.0 479.74005  " fill="none"/>
 <g transform="matrix(0.0,1.0,-1.0,0.0,0.0,479.94005)">
 <g stroke-dasharray="none" stroke-dashoffset="0.0">
 <g stroke-linecap="round">
 <g stroke-linejoin="round">
 <path d=" M -2.07999 2.39998 C -1.69998 0.95998 -0.85318 0.28 0.0 0.0 C -0.85318 -0.28 -1.69998 -0.95998 -2.07999 -2.39998  " fill="none"/>
 </g>
 </g>
 </g>
  </g>
 <g transform="matrix(0.0,0.75,-0.75,0.0,-36.94965,407.17256)">
 <g fill="#000">
 <text style="stroke:none" transform="scale(1,-1) translate(46.7202,0)" text-anchor="middle"  font-size="10.95"> 
<g fill="#000">
 <g stroke="none"> Preço a pagar (R$)</g> </g>
 </text> 
</g>
 </g>
 <g transform="matrix(0.75,0.0,0.0,0.75,36.51976,258.68567)">
 <g fill="#000">
 <text style="stroke:none" transform="scale(1,-1) translate(8.21248,0)" text-anchor="middle"  font-size="10.95"> 
<g fill="#000">
 <g stroke="none"> 200 </g> </g>
 </text> 
</g>
 </g>
 <g stroke="#808080" fill="#808080">
 <g stroke-width="0.2">
 <path d=" M 42.67911 266.74446 L 42.67911 480.14005  " fill="none"/>
 </g>
 </g>
 <g transform="matrix(0.75,0.0,0.0,0.75,79.19888,258.68567)">
 <g fill="#000">
 <text style="stroke:none" transform="scale(1,-1) translate(8.21248,0)" text-anchor="middle"  font-size="10.95"> 
<g fill="#000">
 <g stroke="none"> 400 </g> </g>
 </text> 
</g>
 </g>
 <g stroke="#808080" fill="#808080">
 <g stroke-width="0.2">
 <path d=" M 85.35823 266.74446 L 85.35823 480.14005  " fill="none"/>
 </g>
 </g>
 <g transform="matrix(0.75,0.0,0.0,0.75,121.87799,258.68567)">
 <g fill="#000">
 <text style="stroke:none" transform="scale(1,-1) translate(8.21248,0)" text-anchor="middle"  font-size="10.95"> 
<g fill="#000">
 <g stroke="none"> 600 </g> </g>
 </text> 
</g>
 </g>
 <g stroke="#808080" fill="#808080">
 <g stroke-width="0.2">
 <path d=" M 128.03734 266.74446 L 128.03734 480.14005  " fill="none"/>
 </g>
 </g>
 <g transform="matrix(0.75,0.0,0.0,0.75,164.55711,258.68567)">
 <g fill="#000">
 <text style="stroke:none" transform="scale(1,-1) translate(8.21248,0)" text-anchor="middle"  font-size="10.95"> 
<g fill="#000">
 <g stroke="none"> 800 </g> </g>
 </text> 
</g>
 </g>
 <g stroke="#808080" fill="#808080">
 <g stroke-width="0.2">
 <path d=" M 170.71646 266.74446 L 170.71646 480.14005  " fill="none"/>
 </g>
 </g>
 <g transform="matrix(0.75,0.0,0.0,0.75,205.18309,258.68567)">
 <g fill="#000">
 <text style="stroke:none" transform="scale(1,-1) translate(10.94998,0)" text-anchor="middle"  font-size="10.95"> 
<g fill="#000">
 <g stroke="none"> 1000 </g> </g>
 </text> 
</g>
 </g>
 <g stroke="#808080" fill="#808080">
 <g stroke-width="0.2">
 <path d=" M 213.39557 266.74446 L 213.39557 480.14005  " fill="none"/>
 </g>
 </g>
 <g transform="matrix(0.75,0.0,0.0,0.75,-25.69963,425.00377)">
 <g fill="#000">
 <text style="stroke:none" transform="scale(1,-1) translate(15.2083,0)" text-anchor="middle"  font-size="10.95"> 
<g fill="#000">
 <g stroke="none"> 800,00 </g> </g>
 </text> 
</g>
 </g>
 <g stroke-width="0.8">
 <g stroke="#4bad31" fill="#4bad31">
 <path d=" M 0.0 266.74446 L 213.39557 426.79115  " fill="none"/>
 </g>
 </g>
 <g stroke="#808080" fill="#808080">
 <g stroke-width="0.2">
 <path d=" M 0.0 426.79115 L 213.39557 426.79115  " fill="none"/>
 </g>
 </g>
 <g transform="matrix(0.75,0.0,0.0,0.75,-25.69963,432.1681)">
 <g fill="#000">
 <text style="stroke:none" transform="scale(1,-1) translate(15.2083,0)" text-anchor="middle"  font-size="10.95"> 
<g fill="#000">
 <g stroke="none"> 813,43 </g> </g>
 </text> 
</g>
 </g>
 <g stroke-width="0.8">
 <g stroke="#4bad31" fill="#4bad31">
 <path d=" M 0.0 266.74446 L 213.39557 433.95549  " fill="none"/>
 </g>
 </g>
 <g stroke="#808080" fill="#808080">
 <g stroke-width="0.2">
 <path d=" M 0.0 433.95549 L 213.39557 433.95549  " fill="none"/>
 </g>
 </g>
 <g transform="matrix(0.75,0.0,0.0,0.75,-25.69963,447.24492)">
 <g fill="#000">
 <text style="stroke:none" transform="scale(1,-1) translate(15.2083,0)" text-anchor="middle"  font-size="10.95"> 
<g fill="#000">
 <g stroke="none"> 841,89 </g> </g>
 </text> 
</g>
 </g>
 <g stroke-width="0.8">
 <g stroke="#4bad31" fill="#4bad31">
 <path d=" M 0.0 266.74446 L 213.39557 449.0323  " fill="none"/>
 </g>
 </g>
 <g stroke="#808080" fill="#808080">
 <g stroke-width="0.2">
 <path d=" M 0.0 449.0323 L 213.39557 449.0323  " fill="none"/>
 </g>
 </g>
 <g transform="matrix(0.75,0.0,0.0,0.75,-25.69963,458.30936)">
 <g fill="#000">
 <text style="stroke:none" transform="scale(1,-1) translate(15.2083,0)" text-anchor="middle"  font-size="10.95"> 
<g fill="#000">
 <g stroke="none"> 862,43 </g> </g>
 </text> 
</g>
 </g>
 <g stroke-width="0.8">
 <g stroke="#4bad31" fill="#4bad31">
 <path d=" M 0.0 266.74446 L 213.39557 460.09674  " fill="none"/>
 </g>
 </g>
 <g stroke="#808080" fill="#808080">
 <g stroke-width="0.2">
 <path d=" M 0.0 460.09674 L 213.39557 460.09674  " fill="none"/>
 </g>
 </g>
 </g>
 </g>
                                        </g> 
</svg> 
