<?xml version="1.0" encoding="iso-8859-1" standalone="no"?> 
<?xml-stylesheet href="funcoes.css" type="text/css"?> 
<svg xmlns="http://www.w3.org/2000/svg" xmlns:xlink="http://www.w3.org/1999/xlink" width="405.85165pt" height="128.43733pt" viewBox="-85.55823 -42.8791 405.85165 128.43733 "> 
<g transform="translate(0, 85.55823 ) scale(1,-1) translate(0,42.8791 )"> 
                       </p>
                       <g stroke="#000" fill="#000">
 <g stroke-width="0.4">
 <g stroke-width="1.0">
 <g stroke="#ec6b10" fill="#ec6b10">
 <path d=" M -64.01866 -18.62196 L -62.59636 -16.0626 L -61.17407 -13.3105 L -59.7518 -10.43661 L -58.3295 -7.51 L -56.90721 -4.60287 L -55.48491 -1.78241 L -54.06262 0.89151 L -52.64035 3.35904 L -51.21805 5.57388 L -49.79576 7.4937 L -48.37346 9.08662 L -46.95117 10.32916 L -45.5289 11.20834 L -44.1066 11.72215 L -42.68431 11.87585 L -41.26201 11.68634 L -39.83974 11.17902 L -38.41745 10.38516 L -36.99515 9.34645 L -35.57286 8.1065 L -34.15056 6.71614 L -32.72829 5.22937 L -31.306 3.69768 L -29.8837 2.17575 L -28.46141 0.71635 L -27.03911 -0.63039 L -25.61684 -1.81824 L -24.19455 -2.8081 L -22.77225 -3.56744 L -21.34996 -4.06888 L -19.92766 -4.2942 L -18.50539 -4.23756 L -17.0831 -3.89566 L -15.6608 -3.2796 L -14.23851 -2.40369 L -12.81621 -1.29854 L -11.39394 0.0078 L -9.97165 1.47047 L -8.54935 3.04579 L -7.12706 4.68298 L -5.70479 6.328 L -4.28249 7.92677 L -2.8602 9.4207 L -1.4379 10.75964 L -0.01561 11.88951 L 1.40663 12.76608 L 2.82893 13.3424 L 4.25122 13.58794 L 5.67352 13.47397 L 7.09581 12.98163 L 8.51808 12.10703 L 9.94038 10.84364 L 11.36267 9.20906 L 12.78497 7.2228 L 14.20726 4.91548 L 15.62953 2.32944 L 17.05183 -0.48647 L 18.47412 -3.47562 L 19.89642 -6.57481 L 21.31871 -9.71507 L 22.74098 -12.82468 L 24.16328 -15.83076 L 25.58557 -18.65909 L 27.00787 -21.23535 L 28.43015 -23.49382 L 29.85243 -25.37001 L 31.27473 -26.80403 L 32.69702 -27.75027 L 34.11932 -28.1664 L 35.5416 -28.02379 L 36.96388 -27.30676 L 38.38618 -26.00693 L 39.80847 -24.13528 L 41.23077 -21.70813 L 42.65305 -18.75935 L 44.07533 -15.33453 L 45.49763 -11.48836 L 46.91992 -7.29053 L 48.34222 -2.8133 L 49.7645 1.85664 L 51.18678 6.63213 L 52.60909 11.41737 L 54.03137 16.11536 L 55.45367 20.62971 L 56.87595 24.864 L 58.29823 28.73036 L 59.72054 32.13956 L 61.14282 35.01672 L 62.5651 37.28755 L 63.9874 38.90196 L 65.40968 39.81042 L 66.83199 39.9804 L 68.25427 39.39754 L 69.67654 38.0573 L 71.09885 35.97533 L 72.52113 33.17633 L 73.94344 29.70721 L 75.36572 25.6214 L 76.788 20.99178  " fill="none"/>
 </g>
 </g>
 <path d=" M -34.1434 -42.67911 L -34.1434 84.95824  " fill="none"/>
 <g transform="matrix(0.0,1.0,-1.0,0.0,-34.1434,85.15823)">
 <g stroke-dasharray="none" stroke-dashoffset="0.0">
 <g stroke-linecap="round">
 <g stroke-linejoin="round">
 <path d=" M -2.07999 2.39998 C -1.69998 0.95998 -0.85318 0.28 0.0 0.0 C -0.85318 -0.28 -1.69998 -0.95998 -2.07999 -2.39998  " fill="none"/>
 </g>
 </g>
 </g>
  </g>
 <path d=" M -85.35823 0.0 L 106.29778 0.0  " fill="none"/>
 <g transform="translate(106.49777,0.0)">
 <g stroke-dasharray="none" stroke-dashoffset="0.0">
 <g stroke-linecap="round">
 <g stroke-linejoin="round">
 <path d=" M -2.07999 2.39998 C -1.69998 0.95998 -0.85318 0.28 0.0 0.0 C -0.85318 -0.28 -1.69998 -0.95998 -2.07999 -2.39998  " fill="none"/>
 </g>
 </g>
 </g>
  </g>
 <g stroke-dasharray="3.0,3.0" stroke-dashoffset="0.0">
 <path d=" M -85.35823 40.54501 L 106.69777 40.54501  " fill="none"/>
 </g>
 <g stroke-dasharray="3.0,3.0" stroke-dashoffset="0.0">
 <path d=" M -85.35823 -28.59491 L 106.69777 -28.59491  " fill="none"/>
 </g>
 <g stroke="#f00" fill="#f00">
 <g stroke-width="0.8">
 <path d=" M -34.1434 -28.59491 L -34.1434 40.54501  " fill="none"/>
 </g>
 </g>
 <g stroke-width="1.0">
 <g stroke="#ec6b10" fill="#ec6b10">
 <path d=" M 149.377 -18.62196 L 150.7993 -16.0626 L 152.22159 -13.3105 L 153.64386 -10.43661 L 155.06616 -7.51 L 156.48845 -4.60287 L 157.91075 -1.78241 L 159.33304 0.89151 L 160.75531 3.35904 L 162.17761 5.57388 L 163.5999 7.4937 L 165.0222 9.08662 L 166.44449 10.32916 L 167.86676 11.20834 L 169.28906 11.72215 L 170.71135 11.87585 L 172.13365 11.68634 L 173.55592 11.17902 L 174.97821 10.38516 L 176.40051 9.34645 L 177.8228 8.1065 L 179.2451 6.71614 L 180.66737 5.22937 L 182.08966 3.69768 L 183.51196 2.17575 L 184.93425 0.71635 L 186.35655 -0.63039 L 187.77882 -1.81824 L 189.20111 -2.8081 L 190.62341 -3.56744 L 192.0457 -4.06888 L 193.468 -4.2942 L 194.89027 -4.23756 L 196.31256 -3.89566 L 197.73486 -3.2796 L 199.15715 -2.40369 L 200.57945 -1.29854 L 202.00172 0.0078 L 203.42401 1.47047 L 204.84631 3.04579 L 206.2686 4.68298 L 207.69087 6.328 L 209.11317 7.92677 L 210.53546 9.4207 L 211.95776 10.75964 L 213.38005 11.88951 L 214.80229 12.76608 L 216.2246 13.3424 L 217.64688 13.58794 L 219.06918 13.47397 L 220.49147 12.98163 L 221.91374 12.10703 L 223.33604 10.84364 L 224.75833 9.20906 L 226.18063 7.2228 L 227.60292 4.91548 L 229.02519 2.32944 L 230.4475 -0.48647 L 231.86978 -3.47562 L 233.29208 -6.57481 L 234.71437 -9.71507 L 236.13664 -12.82468 L 237.55894 -15.83076 L 238.98123 -18.65909 L 240.40353 -21.23535 L 241.8258 -23.49382 L 243.2481 -25.37001 L 244.6704 -26.80403 L 246.09268 -27.75027 L 247.51498 -28.1664 L 248.93726 -28.02379 L 250.35954 -27.30676 L 251.78185 -26.00693 L 253.20413 -24.13528 L 254.62643 -21.70813 L 256.0487 -18.75935 L 257.471 -15.33453 L 258.8933 -11.48836 L 260.31558 -7.29053 L 261.73788 -2.8133 L 263.16016 1.85664 L 264.58244 6.63213 L 266.00475 11.41737 L 267.42703 16.11536 L 268.84933 20.62971 L 270.2716 24.864 L 271.6939 28.73036 L 273.1162 32.13956 L 274.53848 35.01672 L 275.96075 37.28755 L 277.38306 38.90196 L 278.80534 39.81042 L 280.22765 39.9804 L 281.64993 39.39754 L 283.0722 38.0573 L 284.4945 35.97533 L 285.9168 33.17633 L 287.3391 29.70721 L 288.76138 25.6214 L 290.18365 20.99178  " fill="none"/>
 </g>
 </g>
 <path d=" M 179.25226 -42.67911 L 179.25226 84.95824  " fill="none"/>
 <g transform="matrix(0.0,1.0,-1.0,0.0,179.25226,85.15823)">
 <g stroke-dasharray="none" stroke-dashoffset="0.0">
 <g stroke-linecap="round">
 <g stroke-linejoin="round">
 <path d=" M -2.07999 2.39998 C -1.69998 0.95998 -0.85318 0.28 0.0 0.0 C -0.85318 -0.28 -1.69998 -0.95998 -2.07999 -2.39998  " fill="none"/>
 </g>
 </g>
 </g>
  </g>
 <path d=" M 128.03743 0.0 L 319.69344 0.0  " fill="none"/>
 <g transform="translate(319.89343,0.0)">
 <g stroke-dasharray="none" stroke-dashoffset="0.0">
 <g stroke-linecap="round">
 <g stroke-linejoin="round">
 <path d=" M -2.07999 2.39998 C -1.69998 0.95998 -0.85318 0.28 0.0 0.0 C -0.85318 -0.28 -1.69998 -0.95998 -2.07999 -2.39998  " fill="none"/>
 </g>
 </g>
 </g>
  </g>
 <g stroke-dasharray="3.0,3.0" stroke-dashoffset="0.0">
 <path d=" M 149.377 -42.67911 L 149.377 85.35823  " fill="none"/>
 </g>
 <g stroke-dasharray="3.0,3.0" stroke-dashoffset="0.0">
 <path d=" M 290.21817 -42.67911 L 290.21817 85.35823  " fill="none"/>
 </g>
 <g stroke="#00f" fill="#00f">
 <g stroke-width="0.8">
 <path d=" M 149.377 0.0 L 290.21817 0.0  " fill="none"/>
 </g>
 </g>
 </g>
 </g>
 
                                                                                                               </g> 
</svg> 
