<?xml version="1.0" encoding="iso-8859-1" standalone="no"?> 
<?xml-stylesheet href="funcoes.css" type="text/css"?> 
<svg xmlns="http://www.w3.org/2000/svg" xmlns:xlink="http://www.w3.org/1999/xlink" width="334.21013pt" height="243.2252pt" viewBox="-24.50664 -24.50664 334.21013 243.2252 "> 
<g transform="translate(0, 218.71857 ) scale(1,-1) translate(0,24.50664 )"> 
       </p>
       <g stroke="#000" fill="#000">
 <g stroke-width="0.4">
 <path d=" M 0.0 0.0 L 298.3538 0.0  " fill="none"/>
 <g transform="translate(298.5538,0.0)">
 <g stroke-dasharray="none" stroke-dashoffset="0.0">
 <g stroke-linecap="round">
 <g stroke-linejoin="round">
 <path d=" M -2.07999 2.39998 C -1.69998 0.95998 -0.85318 0.28 0.0 0.0 C -0.85318 -0.28 -1.69998 -0.95998 -2.07999 -2.39998  " fill="none"/>
 </g>
 </g>
 </g>
  </g>
 <g transform="matrix(0.75,0.0,0.0,0.75,251.10829,-19.71632)">
 <g fill="#000">
 <text style="stroke:none" transform="scale(1,-1) translate(29.83888,0)" text-anchor="middle"  font-size="10.95"> 
<g fill="#000">
 <g stroke="none"> Dados (MB)</g> </g>
 </text> 
</g>
 </g>
 <path d=" M 0.0 0.0 L 0.0 212.99557  " fill="none"/>
 <g transform="matrix(0.0,1.0,-1.0,0.0,0.0,213.19557)">
 <g stroke-dasharray="none" stroke-dashoffset="0.0">
 <g stroke-linecap="round">
 <g stroke-linejoin="round">
 <path d=" M -2.07999 2.39998 C -1.69998 0.95998 -0.85318 0.28 0.0 0.0 C -0.85318 -0.28 -1.69998 -0.95998 -2.07999 -2.39998  " fill="none"/>
 </g>
 </g>
 </g>
  </g>
 <g transform="matrix(0.0,0.75,-0.75,0.0,-15.61008,171.81819)">
 <g fill="#000">
 <text style="stroke:none" transform="scale(1,-1) translate(25.79346,0)" text-anchor="middle"  font-size="10.95"> 
<g fill="#000">
 <g stroke="none"> Valor (R$) </g> </g>
 </text> 
</g>
 </g>
 <g stroke="#808080" fill="#808080">
 <g stroke-width="0.2">
 <path d=" M 0.0 0.0 M 0.0 0.0 L 298.7538 0.0 M 0.0 10.66977 L 298.7538 10.66977 M 0.0 21.33955 L 298.7538 21.33955 M 0.0 32.00932 L 298.7538 32.00932 M 0.0 42.67911 L 298.7538 42.67911 M 0.0 53.34889 L 298.7538 53.34889 M 0.0 64.01866 L 298.7538 64.01866 M 0.0 74.68845 L 298.7538 74.68845 M 0.0 85.35823 L 298.7538 85.35823 M 0.0 96.028 L 298.7538 96.028 M 0.0 106.69778 L 298.7538 106.69778 M 0.0 117.36755 L 298.7538 117.36755 M 0.0 128.03734 L 298.7538 128.03734 M 0.0 138.70712 L 298.7538 138.70712 M 0.0 149.37689 L 298.7538 149.37689 M 0.0 160.04668 L 298.7538 160.04668 M 0.0 170.71646 L 298.7538 170.71646 M 0.0 181.38623 L 298.7538 181.38623 M 0.0 192.05602 L 298.7538 192.05602 M 0.0 202.72578 L 298.7538 202.72578 M 0.0 213.39182 L 298.7538 213.39182 M 0.0 0.0 L 0.0 213.39557 M 21.33955 0.0 L 21.33955 213.39557 M 42.67911 0.0 L 42.67911 213.39557 M 64.01866 0.0 L 64.01866 213.39557 M 85.35823 0.0 L 85.35823 213.39557 M 106.69778 0.0 L 106.69778 213.39557 M 128.03734 0.0 L 128.03734 213.39557 M 149.37689 0.0 L 149.37689 213.39557 M 170.71646 0.0 L 170.71646 213.39557 M 192.05602 0.0 L 192.05602 213.39557 M 213.39557 0.0 L 213.39557 213.39557 M 234.73512 0.0 L 234.73512 213.39557 M 256.07469 0.0 L 256.07469 213.39557 M 277.41425 0.0 L 277.41425 213.39557 M 298.7463 0.0 L 298.7463 213.39557 M 298.7538 213.39557  " fill="none"/>
 </g>
 </g>
 <g transform="matrix(0.75,0.0,0.0,0.75,-11.09967,18.75375)">
 <g fill="#000">
 <text style="stroke:none" transform="scale(1,-1) translate(5.47499,0)" text-anchor="middle"  font-size="10.95"> 
<g fill="#000">
 <g stroke="none"> 20 </g> </g>
 </text> 
</g>
 </g>
 <g transform="matrix(0.75,0.0,0.0,0.75,-11.09967,40.0933)">
 <g fill="#000">
 <text style="stroke:none" transform="scale(1,-1) translate(5.47499,0)" text-anchor="middle"  font-size="10.95"> 
<g fill="#000">
 <g stroke="none"> 40 </g> </g>
 </text> 
</g>
 </g>
 <g transform="matrix(0.75,0.0,0.0,0.75,-11.09967,61.43286)">
 <g fill="#000">
 <text style="stroke:none" transform="scale(1,-1) translate(5.47499,0)" text-anchor="middle"  font-size="10.95"> 
<g fill="#000">
 <g stroke="none"> 60 </g> </g>
 </text> 
</g>
 </g>
 <g transform="matrix(0.75,0.0,0.0,0.75,-11.09967,82.77243)">
 <g fill="#000">
 <text style="stroke:none" transform="scale(1,-1) translate(5.47499,0)" text-anchor="middle"  font-size="10.95"> 
<g fill="#000">
 <g stroke="none"> 80 </g> </g>
 </text> 
</g>
 </g>
 <g transform="matrix(0.75,0.0,0.0,0.75,-15.2059,104.11198)">
 <g fill="#000">
 <text style="stroke:none" transform="scale(1,-1) translate(8.21248,0)" text-anchor="middle"  font-size="10.95"> 
<g fill="#000">
 <g stroke="none"> 100 </g> </g>
 </text> 
</g>
 </g>
 <g transform="matrix(0.75,0.0,0.0,0.75,-15.2059,125.45154)">
 <g fill="#000">
 <text style="stroke:none" transform="scale(1,-1) translate(8.21248,0)" text-anchor="middle"  font-size="10.95"> 
<g fill="#000">
 <g stroke="none"> 120 </g> </g>
 </text> 
</g>
 </g>
 <g transform="matrix(0.75,0.0,0.0,0.75,-15.2059,146.79109)">
 <g fill="#000">
 <text style="stroke:none" transform="scale(1,-1) translate(8.21248,0)" text-anchor="middle"  font-size="10.95"> 
<g fill="#000">
 <g stroke="none"> 140 </g> </g>
 </text> 
</g>
 </g>
 <g transform="matrix(0.75,0.0,0.0,0.75,-15.2059,168.13066)">
 <g fill="#000">
 <text style="stroke:none" transform="scale(1,-1) translate(8.21248,0)" text-anchor="middle"  font-size="10.95"> 
<g fill="#000">
 <g stroke="none"> 160 </g> </g>
 </text> 
</g>
 </g>
 <g transform="matrix(0.75,0.0,0.0,0.75,-15.2059,189.47021)">
 <g fill="#000">
 <text style="stroke:none" transform="scale(1,-1) translate(8.21248,0)" text-anchor="middle"  font-size="10.95"> 
<g fill="#000">
 <g stroke="none"> 180 </g> </g>
 </text> 
</g>
 </g>
 <g transform="matrix(0.75,0.0,0.0,0.75,-15.2059,210.80977)">
 <g fill="#000">
 <text style="stroke:none" transform="scale(1,-1) translate(8.21248,0)" text-anchor="middle"  font-size="10.95"> 
<g fill="#000">
 <g stroke="none"> 200 </g> </g>
 </text> 
</g>
 </g>
 <g transform="matrix(0.75,0.0,0.0,0.75,15.1802,-8.05879)">
 <g fill="#000">
 <text style="stroke:none" transform="scale(1,-1) translate(8.21248,0)" text-anchor="middle"  font-size="10.95"> 
<g fill="#000">
 <g stroke="none"> 100 </g> </g>
 </text> 
</g>
 </g>
 <g transform="matrix(0.75,0.0,0.0,0.75,36.51976,-8.05879)">
 <g fill="#000">
 <text style="stroke:none" transform="scale(1,-1) translate(8.21248,0)" text-anchor="middle"  font-size="10.95"> 
<g fill="#000">
 <g stroke="none"> 200 </g> </g>
 </text> 
</g>
 </g>
 <g transform="matrix(0.75,0.0,0.0,0.75,57.85931,-8.05879)">
 <g fill="#000">
 <text style="stroke:none" transform="scale(1,-1) translate(8.21248,0)" text-anchor="middle"  font-size="10.95"> 
<g fill="#000">
 <g stroke="none"> 300 </g> </g>
 </text> 
</g>
 </g>
 <g transform="matrix(0.75,0.0,0.0,0.75,79.19888,-8.05879)">
 <g fill="#000">
 <text style="stroke:none" transform="scale(1,-1) translate(8.21248,0)" text-anchor="middle"  font-size="10.95"> 
<g fill="#000">
 <g stroke="none"> 400 </g> </g>
 </text> 
</g>
 </g>
 <g transform="matrix(0.75,0.0,0.0,0.75,100.53844,-8.05879)">
 <g fill="#000">
 <text style="stroke:none" transform="scale(1,-1) translate(8.21248,0)" text-anchor="middle"  font-size="10.95"> 
<g fill="#000">
 <g stroke="none"> 500 </g> </g>
 </text> 
</g>
 </g>
 <g transform="matrix(0.75,0.0,0.0,0.75,121.87799,-8.05879)">
 <g fill="#000">
 <text style="stroke:none" transform="scale(1,-1) translate(8.21248,0)" text-anchor="middle"  font-size="10.95"> 
<g fill="#000">
 <g stroke="none"> 600 </g> </g>
 </text> 
</g>
 </g>
 <g transform="matrix(0.75,0.0,0.0,0.75,143.21754,-8.05879)">
 <g fill="#000">
 <text style="stroke:none" transform="scale(1,-1) translate(8.21248,0)" text-anchor="middle"  font-size="10.95"> 
<g fill="#000">
 <g stroke="none"> 700 </g> </g>
 </text> 
</g>
 </g>
 <g transform="matrix(0.75,0.0,0.0,0.75,164.55711,-8.05879)">
 <g fill="#000">
 <text style="stroke:none" transform="scale(1,-1) translate(8.21248,0)" text-anchor="middle"  font-size="10.95"> 
<g fill="#000">
 <g stroke="none"> 800 </g> </g>
 </text> 
</g>
 </g>
 <g transform="matrix(0.75,0.0,0.0,0.75,185.89667,-8.05879)">
 <g fill="#000">
 <text style="stroke:none" transform="scale(1,-1) translate(8.21248,0)" text-anchor="middle"  font-size="10.95"> 
<g fill="#000">
 <g stroke="none"> 900 </g> </g>
 </text> 
</g>
 </g>
 <g transform="matrix(0.75,0.0,0.0,0.75,205.18309,-8.05879)">
 <g fill="#000">
 <text style="stroke:none" transform="scale(1,-1) translate(10.94998,0)" text-anchor="middle"  font-size="10.95"> 
<g fill="#000">
 <g stroke="none"> 1000 </g> </g>
 </text> 
</g>
 </g>
 <g transform="matrix(0.75,0.0,0.0,0.75,226.52264,-8.05879)">
 <g fill="#000">
 <text style="stroke:none" transform="scale(1,-1) translate(10.94998,0)" text-anchor="middle"  font-size="10.95"> 
<g fill="#000">
 <g stroke="none"> 1100 </g> </g>
 </text> 
</g>
 </g>
 <g transform="matrix(0.75,0.0,0.0,0.75,247.86221,-8.05879)">
 <g fill="#000">
 <text style="stroke:none" transform="scale(1,-1) translate(10.94998,0)" text-anchor="middle"  font-size="10.95"> 
<g fill="#000">
 <g stroke="none"> 1200 </g> </g>
 </text> 
</g>
 </g>
 <g transform="matrix(0.75,0.0,0.0,0.75,269.20177,-8.05879)">
 <g fill="#000">
 <text style="stroke:none" transform="scale(1,-1) translate(10.94998,0)" text-anchor="middle"  font-size="10.95"> 
<g fill="#000">
 <g stroke="none"> 1300 </g> </g>
 </text> 
</g>
 </g>
 <g transform="matrix(0.75,0.0,0.0,0.75,290.54132,-8.05879)">
 <g fill="#000">
 <text style="stroke:none" transform="scale(1,-1) translate(10.94998,0)" text-anchor="middle"  font-size="10.95"> 
<g fill="#000">
 <g stroke="none"> 1400 </g> </g>
 </text> 
</g>
 </g>
 <g transform="matrix(0.75,0.0,0.0,0.75,-6.99342,-8.05879)">
 <g fill="#000">
 <text style="stroke:none" transform="scale(1,-1) translate(2.73749,0)" text-anchor="middle"  font-size="10.95"> 
<g fill="#000">
 <g stroke="none"> 0 </g> </g>
 </text> 
</g>
 </g>
 <g stroke-width="0.8">
 <g stroke="#4bad31" fill="#4bad31">
 <path d=" M 0.0 85.35823 L 128.03734 85.35823 L 298.7538 213.39557  " fill="none"/>
 </g>
 </g>
 </g>
 </g>
 
                                                                                            </g> 
</svg> 
