<?xml version="1.0" encoding="iso-8859-1" standalone="no"?> 
<?xml-stylesheet href="funcoes.css" type="text/css"?> 
<svg xmlns="http://www.w3.org/2000/svg" xmlns:xlink="http://www.w3.org/1999/xlink" width="194.45601pt" height="76.32259pt" viewBox="-29.65274 -1.2 194.45601 76.32259 "> 
<g transform="translate(0, 75.12259 ) scale(1,-1) translate(0,1.2 )"> 
        </p><g stroke="#000" fill="#000">
 <g stroke-width="0.4">
 <g fill="#000">
 <path d=" M -28.45274 0.0 M -27.45274 0.0 C -27.45274 0.55229 -27.90045 1.0 -28.45274 1.0 C -29.00504 1.0 -29.45274 0.55229 -29.45274 0.0 C -29.45274 -0.55229 -29.00504 -1.0 -28.45274 -1.0 C -27.90045 -1.0 -27.45274 -0.55229 -27.45274 0.0 Z M -28.45274 0.0  " />
 </g>
 <g fill="#000">
 <path d=" M 0.0 0.0 M 1.0 0.0 C 1.0 0.55229 0.55229 1.0 0.0 1.0 C -0.55229 1.0 -1.0 0.55229 -1.0 0.0 C -1.0 -0.55229 -0.55229 -1.0 0.0 -1.0 C 0.55229 -1.0 1.0 -0.55229 1.0 0.0 Z M 0.0 0.0  " />
 </g>
 <g fill="#000">
 <path d=" M -14.22636 0.0 M -13.22636 0.0 C -13.22636 0.55229 -13.67407 1.0 -14.22636 1.0 C -14.77866 1.0 -15.22636 0.55229 -15.22636 0.0 C -15.22636 -0.55229 -14.77866 -1.0 -14.22636 -1.0 C -13.67407 -1.0 -13.22636 -0.55229 -13.22636 0.0 Z M -14.22636 0.0  " />
 </g>
 <g fill="#000">
 <path d=" M 7.11317 12.32042 M 8.11317 12.32042 C 8.11317 12.87271 7.66547 13.32042 7.11317 13.32042 C 6.56088 13.32042 6.11317 12.87271 6.11317 12.32042 C 6.11317 11.76813 6.56088 11.32042 7.11317 11.32042 C 7.66547 11.32042 8.11317 11.76813 8.11317 12.32042 Z M 7.11317 12.32042  " />
 </g>
 <g fill="#000">
 <path d=" M 0.0 24.64085 M 1.0 24.64085 C 1.0 25.19315 0.55229 25.64085 0.0 25.64085 C -0.55229 25.64085 -1.0 25.19315 -1.0 24.64085 C -1.0 24.08856 -0.55229 23.64085 0.0 23.64085 C 0.55229 23.64085 1.0 24.08856 1.0 24.64085 Z M 0.0 24.64085  " />
 </g>
 <g fill="#000">
 <path d=" M -14.22636 24.64085 M -13.22636 24.64085 C -13.22636 25.19315 -13.67407 25.64085 -14.22636 25.64085 C -14.77866 25.64085 -15.22636 25.19315 -15.22636 24.64085 C -15.22636 24.08856 -14.77866 23.64085 -14.22636 23.64085 C -13.67407 23.64085 -13.22636 24.08856 -13.22636 24.64085 Z M -14.22636 24.64085  " />
 </g>
 <g fill="#000">
 <path d=" M -21.33955 12.32042 M -20.33955 12.32042 C -20.33955 12.87271 -20.78726 13.32042 -21.33955 13.32042 C -21.89185 13.32042 -22.33955 12.87271 -22.33955 12.32042 C -22.33955 11.76813 -21.89185 11.32042 -21.33955 11.32042 C -20.78726 11.32042 -20.33955 11.76813 -20.33955 12.32042 Z M -21.33955 12.32042  " />
 </g>
 <g fill="#000">
 <path d=" M 28.45274 0.0 M 29.45274 0.0 C 29.45274 0.55229 29.00504 1.0 28.45274 1.0 C 27.90045 1.0 27.45274 0.55229 27.45274 0.0 C 27.45274 -0.55229 27.90045 -1.0 28.45274 -1.0 C 29.00504 -1.0 29.45274 -0.55229 29.45274 0.0 Z M 28.45274 0.0  " />
 </g>
 <g fill="#000">
 <path d=" M 42.67911 0.0 M 43.67911 0.0 C 43.67911 0.55229 43.2314 1.0 42.67911 1.0 C 42.12682 1.0 41.67911 0.55229 41.67911 0.0 C 41.67911 -0.55229 42.12682 -1.0 42.67911 -1.0 C 43.2314 -1.0 43.67911 -0.55229 43.67911 0.0 Z M 42.67911 0.0  " />
 </g>
 <g fill="#000">
 <path d=" M 56.90549 0.0 M 57.90549 0.0 C 57.90549 0.55229 57.45778 1.0 56.90549 1.0 C 56.3532 1.0 55.90549 0.55229 55.90549 0.0 C 55.90549 -0.55229 56.3532 -1.0 56.90549 -1.0 C 57.45778 -1.0 57.90549 -0.55229 57.90549 0.0 Z M 56.90549 0.0  " />
 </g>
 <g fill="#000">
 <path d=" M 71.13185 24.64085 M 72.13185 24.64085 C 72.13185 25.19315 71.68414 25.64085 71.13185 25.64085 C 70.57956 25.64085 70.13185 25.19315 70.13185 24.64085 C 70.13185 24.08856 70.57956 23.64085 71.13185 23.64085 C 71.68414 23.64085 72.13185 24.08856 72.13185 24.64085 Z M 71.13185 24.64085  " />
 </g>
 <g fill="#000">
 <path d=" M 56.90549 49.28172 M 57.90549 49.28172 C 57.90549 49.83401 57.45778 50.28172 56.90549 50.28172 C 56.3532 50.28172 55.90549 49.83401 55.90549 49.28172 C 55.90549 48.72943 56.3532 48.28172 56.90549 48.28172 C 57.45778 48.28172 57.90549 48.72943 57.90549 49.28172 Z M 56.90549 49.28172  " />
 </g>
 <g fill="#000">
 <path d=" M 28.45274 49.28172 M 29.45274 49.28172 C 29.45274 49.83401 29.00504 50.28172 28.45274 50.28172 C 27.90045 50.28172 27.45274 49.83401 27.45274 49.28172 C 27.45274 48.72943 27.90045 48.28172 28.45274 48.28172 C 29.00504 48.28172 29.45274 48.72943 29.45274 49.28172 Z M 28.45274 49.28172  " />
 </g>
 <g fill="#000">
 <path d=" M 14.22636 24.64085 M 15.22636 24.64085 C 15.22636 25.19315 14.77866 25.64085 14.22636 25.64085 C 13.67407 25.64085 13.22636 25.19315 13.22636 24.64085 C 13.22636 24.08856 13.67407 23.64085 14.22636 23.64085 C 14.77866 23.64085 15.22636 24.08856 15.22636 24.64085 Z M 14.22636 24.64085  " />
 </g>
 <g fill="#000">
 <path d=" M 49.7923 12.32042 M 50.7923 12.32042 C 50.7923 12.87271 50.34459 13.32042 49.7923 13.32042 C 49.24 13.32042 48.7923 12.87271 48.7923 12.32042 C 48.7923 11.76813 49.24 11.32042 49.7923 11.32042 C 50.34459 11.32042 50.7923 11.76813 50.7923 12.32042 Z M 49.7923 12.32042  " />
 </g>
 <g fill="#000">
 <path d=" M 42.67911 24.64085 M 43.67911 24.64085 C 43.67911 25.19315 43.2314 25.64085 42.67911 25.64085 C 42.12682 25.64085 41.67911 25.19315 41.67911 24.64085 C 41.67911 24.08856 42.12682 23.64085 42.67911 23.64085 C 43.2314 23.64085 43.67911 24.08856 43.67911 24.64085 Z M 42.67911 24.64085  " />
 </g>
 <g fill="#000">
 <path d=" M 28.45274 24.64085 M 29.45274 24.64085 C 29.45274 25.19315 29.00504 25.64085 28.45274 25.64085 C 27.90045 25.64085 27.45274 25.19315 27.45274 24.64085 C 27.45274 24.08856 27.90045 23.64085 28.45274 23.64085 C 29.00504 23.64085 29.45274 24.08856 29.45274 24.64085 Z M 28.45274 24.64085  " />
 </g>
 <g fill="#000">
 <path d=" M 21.33955 12.32042 M 22.33955 12.32042 C 22.33955 12.87271 21.89185 13.32042 21.33955 13.32042 C 20.78726 13.32042 20.33955 12.87271 20.33955 12.32042 C 20.33955 11.76813 20.78726 11.32042 21.33955 11.32042 C 21.89185 11.32042 22.33955 11.76813 22.33955 12.32042 Z M 21.33955 12.32042  " />
 </g>
 <g fill="#000">
 <path d=" M 64.01866 12.32042 M 65.01866 12.32042 C 65.01866 12.87271 64.57095 13.32042 64.01866 13.32042 C 63.46637 13.32042 63.01866 12.87271 63.01866 12.32042 C 63.01866 11.76813 63.46637 11.32042 64.01866 11.32042 C 64.57095 11.32042 65.01866 11.76813 65.01866 12.32042 Z M 64.01866 12.32042  " />
 </g>
 <g fill="#000">
 <path d=" M 64.01866 36.96129 M 65.01866 36.96129 C 65.01866 37.51358 64.57095 37.96129 64.01866 37.96129 C 63.46637 37.96129 63.01866 37.51358 63.01866 36.96129 C 63.01866 36.409 63.46637 35.96129 64.01866 35.96129 C 64.57095 35.96129 65.01866 36.409 65.01866 36.96129 Z M 64.01866 36.96129  " />
 </g>
 <g fill="#000">
 <path d=" M 42.67911 49.28172 M 43.67911 49.28172 C 43.67911 49.83401 43.2314 50.28172 42.67911 50.28172 C 42.12682 50.28172 41.67911 49.83401 41.67911 49.28172 C 41.67911 48.72943 42.12682 48.28172 42.67911 48.28172 C 43.2314 48.28172 43.67911 48.72943 43.67911 49.28172 Z M 42.67911 49.28172  " />
 </g>
 <g fill="#000">
 <path d=" M 21.33955 36.96129 M 22.33955 36.96129 C 22.33955 37.51358 21.89185 37.96129 21.33955 37.96129 C 20.78726 37.96129 20.33955 37.51358 20.33955 36.96129 C 20.33955 36.409 20.78726 35.96129 21.33955 35.96129 C 21.89185 35.96129 22.33955 36.409 22.33955 36.96129 Z M 21.33955 36.96129  " />
 </g>
 <g fill="#000">
 <path d=" M 99.5846 0.0 M 100.5846 0.0 C 100.5846 0.55229 100.13689 1.0 99.5846 1.0 C 99.0323 1.0 98.5846 0.55229 98.5846 0.0 C 98.5846 -0.55229 99.0323 -1.0 99.5846 -1.0 C 100.13689 -1.0 100.5846 -0.55229 100.5846 0.0 Z M 99.5846 0.0  " />
 </g>
 <g fill="#000">
 <path d=" M 113.81097 0.0 M 114.81097 0.0 C 114.81097 0.55229 114.36327 1.0 113.81097 1.0 C 113.25868 1.0 112.81097 0.55229 112.81097 0.0 C 112.81097 -0.55229 113.25868 -1.0 113.81097 -1.0 C 114.36327 -1.0 114.81097 -0.55229 114.81097 0.0 Z M 113.81097 0.0  " />
 </g>
 <g fill="#000">
 <path d=" M 128.03734 0.0 M 129.03734 0.0 C 129.03734 0.55229 128.58963 1.0 128.03734 1.0 C 127.48505 1.0 127.03734 0.55229 127.03734 0.0 C 127.03734 -0.55229 127.48505 -1.0 128.03734 -1.0 C 128.58963 -1.0 129.03734 -0.55229 129.03734 0.0 Z M 128.03734 0.0  " />
 </g>
 <g fill="#000">
 <path d=" M 142.26372 0.0 M 143.26372 0.0 C 143.26372 0.55229 142.81601 1.0 142.26372 1.0 C 141.71143 1.0 141.26372 0.55229 141.26372 0.0 C 141.26372 -0.55229 141.71143 -1.0 142.26372 -1.0 C 142.81601 -1.0 143.26372 -0.55229 143.26372 0.0 Z M 142.26372 0.0  " />
 </g>
 <g fill="#000">
 <path d=" M 163.60327 36.96129 M 164.60327 36.96129 C 164.60327 37.51358 164.15556 37.96129 163.60327 37.96129 C 163.05098 37.96129 162.60327 37.51358 162.60327 36.96129 C 162.60327 36.409 163.05098 35.96129 163.60327 35.96129 C 164.15556 35.96129 164.60327 36.409 164.60327 36.96129 Z M 163.60327 36.96129  " />
 </g>
 <g fill="#000">
 <path d=" M 142.26372 73.92259 M 143.26372 73.92259 C 143.26372 74.47488 142.81601 74.92259 142.26372 74.92259 C 141.71143 74.92259 141.26372 74.47488 141.26372 73.92259 C 141.26372 73.3703 141.71143 72.92259 142.26372 72.92259 C 142.81601 72.92259 143.26372 73.3703 143.26372 73.92259 Z M 142.26372 73.92259  " />
 </g>
 <g fill="#000">
 <path d=" M 99.5846 73.92259 M 100.5846 73.92259 C 100.5846 74.47488 100.13689 74.92259 99.5846 74.92259 C 99.0323 74.92259 98.5846 74.47488 98.5846 73.92259 C 98.5846 73.3703 99.0323 72.92259 99.5846 72.92259 C 100.13689 72.92259 100.5846 73.3703 100.5846 73.92259 Z M 99.5846 73.92259  " />
 </g>
 <g fill="#000">
 <path d=" M 78.24504 36.96129 M 79.24504 36.96129 C 79.24504 37.51358 78.79733 37.96129 78.24504 37.96129 C 77.69275 37.96129 77.24504 37.51358 77.24504 36.96129 C 77.24504 36.409 77.69275 35.96129 78.24504 35.96129 C 78.79733 35.96129 79.24504 36.409 79.24504 36.96129 Z M 78.24504 36.96129  " />
 </g>
 <g fill="#000">
 <path d=" M 142.26372 24.64085 M 143.26372 24.64085 C 143.26372 25.19315 142.81601 25.64085 142.26372 25.64085 C 141.71143 25.64085 141.26372 25.19315 141.26372 24.64085 C 141.26372 24.08856 141.71143 23.64085 142.26372 23.64085 C 142.81601 23.64085 143.26372 24.08856 143.26372 24.64085 Z M 142.26372 24.64085  " />
 </g>
 <g fill="#000">
 <path d=" M 128.03734 49.28172 M 129.03734 49.28172 C 129.03734 49.83401 128.58963 50.28172 128.03734 50.28172 C 127.48505 50.28172 127.03734 49.83401 127.03734 49.28172 C 127.03734 48.72943 127.48505 48.28172 128.03734 48.28172 C 128.58963 48.28172 129.03734 48.72943 129.03734 49.28172 Z M 128.03734 49.28172  " />
 </g>
 <g fill="#000">
 <path d=" M 99.5846 49.28172 M 100.5846 49.28172 C 100.5846 49.83401 100.13689 50.28172 99.5846 50.28172 C 99.0323 50.28172 98.5846 49.83401 98.5846 49.28172 C 98.5846 48.72943 99.0323 48.28172 99.5846 48.28172 C 100.13689 48.28172 100.5846 48.72943 100.5846 49.28172 Z M 99.5846 49.28172  " />
 </g>
 <g fill="#000">
 <path d=" M 85.35823 24.64085 M 86.35823 24.64085 C 86.35823 25.19315 85.91052 25.64085 85.35823 25.64085 C 84.80594 25.64085 84.35823 25.19315 84.35823 24.64085 C 84.35823 24.08856 84.80594 23.64085 85.35823 23.64085 C 85.91052 23.64085 86.35823 24.08856 86.35823 24.64085 Z M 85.35823 24.64085  " />
 </g>
 <g fill="#000">
 <path d=" M 120.92415 12.32042 M 121.92415 12.32042 C 121.92415 12.87271 121.47644 13.32042 120.92415 13.32042 C 120.37186 13.32042 119.92415 12.87271 119.92415 12.32042 C 119.92415 11.76813 120.37186 11.32042 120.92415 11.32042 C 121.47644 11.32042 121.92415 11.76813 121.92415 12.32042 Z M 120.92415 12.32042  " />
 </g>
 <g fill="#000">
 <path d=" M 113.81097 24.64085 M 114.81097 24.64085 C 114.81097 25.19315 114.36327 25.64085 113.81097 25.64085 C 113.25868 25.64085 112.81097 25.19315 112.81097 24.64085 C 112.81097 24.08856 113.25868 23.64085 113.81097 23.64085 C 114.36327 23.64085 114.81097 24.08856 114.81097 24.64085 Z M 113.81097 24.64085  " />
 </g>
 <g fill="#000">
 <path d=" M 99.5846 24.64085 M 100.5846 24.64085 C 100.5846 25.19315 100.13689 25.64085 99.5846 25.64085 C 99.0323 25.64085 98.5846 25.19315 98.5846 24.64085 C 98.5846 24.08856 99.0323 23.64085 99.5846 23.64085 C 100.13689 23.64085 100.5846 24.08856 100.5846 24.64085 Z M 99.5846 24.64085  " />
 </g>
 <g fill="#000">
 <path d=" M 92.4714 12.32042 M 93.4714 12.32042 C 93.4714 12.87271 93.0237 13.32042 92.4714 13.32042 C 91.91911 13.32042 91.4714 12.87271 91.4714 12.32042 C 91.4714 11.76813 91.91911 11.32042 92.4714 11.32042 C 93.0237 11.32042 93.4714 11.76813 93.4714 12.32042 Z M 92.4714 12.32042  " />
 </g>
 <g fill="#000">
 <path d=" M 92.4714 36.96129 M 93.4714 36.96129 C 93.4714 37.51358 93.0237 37.96129 92.4714 37.96129 C 91.91911 37.96129 91.4714 37.51358 91.4714 36.96129 C 91.4714 36.409 91.91911 35.96129 92.4714 35.96129 C 93.0237 35.96129 93.4714 36.409 93.4714 36.96129 Z M 92.4714 36.96129  " />
 </g>
 <g fill="#000">
 <path d=" M 113.81097 24.64085 M 114.81097 24.64085 C 114.81097 25.19315 114.36327 25.64085 113.81097 25.64085 C 113.25868 25.64085 112.81097 25.19315 112.81097 24.64085 C 112.81097 24.08856 113.25868 23.64085 113.81097 23.64085 C 114.36327 23.64085 114.81097 24.08856 114.81097 24.64085 Z M 113.81097 24.64085  " />
 </g>
 <g fill="#000">
 <path d=" M 113.81097 49.28172 M 114.81097 49.28172 C 114.81097 49.83401 114.36327 50.28172 113.81097 50.28172 C 113.25868 50.28172 112.81097 49.83401 112.81097 49.28172 C 112.81097 48.72943 113.25868 48.28172 113.81097 48.28172 C 114.36327 48.28172 114.81097 48.72943 114.81097 49.28172 Z M 113.81097 49.28172  " />
 </g>
 <g fill="#000">
 <path d=" M 135.15053 36.96129 M 136.15053 36.96129 C 136.15053 37.51358 135.70282 37.96129 135.15053 37.96129 C 134.59824 37.96129 134.15053 37.51358 134.15053 36.96129 C 134.15053 36.409 134.59824 35.96129 135.15053 35.96129 C 135.70282 35.96129 136.15053 36.409 136.15053 36.96129 Z M 135.15053 36.96129  " />
 </g>
 <g fill="#000">
 <path d=" M 135.15053 12.32042 M 136.15053 12.32042 C 136.15053 12.87271 135.70282 13.32042 135.15053 13.32042 C 134.59824 13.32042 134.15053 12.87271 134.15053 12.32042 C 134.15053 11.76813 134.59824 11.32042 135.15053 11.32042 C 135.70282 11.32042 136.15053 11.76813 136.15053 12.32042 Z M 135.15053 12.32042  " />
 </g>
 <g fill="#000">
 <path d=" M 149.37689 12.32042 M 150.37689 12.32042 C 150.37689 12.87271 149.92918 13.32042 149.37689 13.32042 C 148.8246 13.32042 148.37689 12.87271 148.37689 12.32042 C 148.37689 11.76813 148.8246 11.32042 149.37689 11.32042 C 149.92918 11.32042 150.37689 11.76813 150.37689 12.32042 Z M 149.37689 12.32042  " />
 </g>
 <g fill="#000">
 <path d=" M 156.49008 24.64085 M 157.49008 24.64085 C 157.49008 25.19315 157.04237 25.64085 156.49008 25.64085 C 155.93779 25.64085 155.49008 25.19315 155.49008 24.64085 C 155.49008 24.08856 155.93779 23.64085 156.49008 23.64085 C 157.04237 23.64085 157.49008 24.08856 157.49008 24.64085 Z M 156.49008 24.64085  " />
 </g>
 <g fill="#000">
 <path d=" M 156.49008 49.28172 M 157.49008 49.28172 C 157.49008 49.83401 157.04237 50.28172 156.49008 50.28172 C 155.93779 50.28172 155.49008 49.83401 155.49008 49.28172 C 155.49008 48.72943 155.93779 48.28172 156.49008 48.28172 C 157.04237 48.28172 157.49008 48.72943 157.49008 49.28172 Z M 156.49008 49.28172  " />
 </g>
 <g fill="#000">
 <path d=" M 149.37689 61.60216 M 150.37689 61.60216 C 150.37689 62.15445 149.92918 62.60216 149.37689 62.60216 C 148.8246 62.60216 148.37689 62.15445 148.37689 61.60216 C 148.37689 61.04987 148.8246 60.60216 149.37689 60.60216 C 149.92918 60.60216 150.37689 61.04987 150.37689 61.60216 Z M 149.37689 61.60216  " />
 </g>
 <g fill="#000">
 <path d=" M 128.03734 73.92259 M 129.03734 73.92259 C 129.03734 74.47488 128.58963 74.92259 128.03734 74.92259 C 127.48505 74.92259 127.03734 74.47488 127.03734 73.92259 C 127.03734 73.3703 127.48505 72.92259 128.03734 72.92259 C 128.58963 72.92259 129.03734 73.3703 129.03734 73.92259 Z M 128.03734 73.92259  " />
 </g>
 <g fill="#000">
 <path d=" M 113.81097 73.92259 M 114.81097 73.92259 C 114.81097 74.47488 114.36327 74.92259 113.81097 74.92259 C 113.25868 74.92259 112.81097 74.47488 112.81097 73.92259 C 112.81097 73.3703 113.25868 72.92259 113.81097 72.92259 C 114.36327 72.92259 114.81097 73.3703 114.81097 73.92259 Z M 113.81097 73.92259  " />
 </g>
 <g fill="#000">
 <path d=" M 92.4714 61.60216 M 93.4714 61.60216 C 93.4714 62.15445 93.0237 62.60216 92.4714 62.60216 C 91.91911 62.60216 91.4714 62.15445 91.4714 61.60216 C 91.4714 61.04987 91.91911 60.60216 92.4714 60.60216 C 93.0237 60.60216 93.4714 61.04987 93.4714 61.60216 Z M 92.4714 61.60216  " />
 </g>
 <g fill="#000">
 <path d=" M 85.35823 49.28172 M 86.35823 49.28172 C 86.35823 49.83401 85.91052 50.28172 85.35823 50.28172 C 84.80594 50.28172 84.35823 49.83401 84.35823 49.28172 C 84.35823 48.72943 84.80594 48.28172 85.35823 48.28172 C 85.91052 48.28172 86.35823 48.72943 86.35823 49.28172 Z M 85.35823 49.28172  " />
 </g>
 </g>
 </g>
                                              </g> 
</svg> 
