<?xml version="1.0" encoding="iso-8859-1" standalone="no"?> 
<?xml-stylesheet href="funcoes.css" type="text/css"?> 
<svg xmlns="http://www.w3.org/2000/svg" xmlns:xlink="http://www.w3.org/1999/xlink" width="128.83733pt" height="185.74281pt" viewBox="-14.62636 -14.62636 128.83733 185.74281 "> 
<g transform="translate(0, 171.11646 ) scale(1,-1) translate(0,14.62636 )"> 
    </p>
    <g stroke="#000" fill="#000">
 <g stroke-width="0.4">
 <g stroke-width="0.8">
 <path d=" M -14.22636 0.0 L 113.01099 0.0  " fill="none"/>
 <g transform="translate(113.41098,0.0)">
 <g stroke-dasharray="none" stroke-dashoffset="0.0">
 <g stroke-linecap="round">
 <g stroke-linejoin="round">
 <path d=" M -2.56 3.12257 C -2.0923 1.24901 -1.05006 0.3643 0.0 0.0 C -1.05006 -0.3643 -2.0923 -1.24901 -2.56 -3.12257  " fill="none"/>
 </g>
 </g>
 </g>
  </g>
 </g>
 <g stroke-width="0.8">
 <path d=" M 0.0 -14.22636 L 0.0 169.91647  " fill="none"/>
 <g transform="matrix(0.0,1.0,-1.0,0.0,0.0,170.31647)">
 <g stroke-dasharray="none" stroke-dashoffset="0.0">
 <g stroke-linecap="round">
 <g stroke-linejoin="round">
 <path d=" M -2.56 3.12257 C -2.0923 1.24901 -1.05006 0.3643 0.0 0.0 C -1.05006 -0.3643 -2.0923 -1.24901 -2.56 -3.12257  " fill="none"/>
 </g>
 </g>
 </g>
  </g>
 </g>
 <g stroke-width="1.2">
 <g stroke="#4bad31" fill="#4bad31">
 <path d=" M -5.69046 159.61859 L -4.5699 153.13016 L -3.44936 146.77284 L -2.3288 140.54924 L -1.20824 134.45674 L -0.08769 128.49797 L 1.03285 122.67032 L 2.1534 116.97638 L 3.27396 111.41356 L 4.3945 105.98402 L 5.51506 100.68605 L 6.6356 95.52135 L 7.75616 90.48819 L 8.87671 85.58832 L 9.99727 80.82 L 11.11781 76.18497 L 12.23837 71.68149 L 13.35892 67.31085 L 14.47948 63.0722 L 15.60002 58.96684 L 16.72058 54.9926 L 17.84114 51.15207 L 18.96169 47.44266 L 20.08224 43.86652 L 21.20279 40.42238 L 22.32335 37.11108 L 23.4439 33.93176 L 24.56445 30.88487 L 25.685 27.9704 L 26.80556 25.18832 L 27.9261 22.53868 L 29.04666 20.02145 L 30.1672 17.63664 L 31.28777 15.38425 L 32.40831 13.26384 L 33.52887 11.27629 L 34.64943 9.42114 L 35.76997 7.69843 L 36.89053 6.10768 L 38.01108 4.64978 L 39.13164 3.32388 L 40.25218 2.13039 L 41.37274 1.06932 L 42.49329 0.1411 L 43.61385 -0.6547 L 44.73439 -1.31851 L 45.85495 -1.84993 L 46.9755 -2.24892 L 48.09605 -2.51549 L 49.2166 -2.64964 L 50.33716 -2.65137 L 51.4577 -2.52113 L 52.57826 -2.25803 L 53.69882 -1.86252 L 54.81937 -1.33502 L 55.93993 -0.67467 L 57.06047 0.11722 L 58.18103 1.0424 L 59.30157 2.09956 L 60.42213 3.28914 L 61.54268 4.61115 L 62.66324 6.066 L 63.78378 7.65283 L 64.90434 9.37209 L 66.02489 11.22375 L 67.14545 13.20784 L 68.26599 15.32391 L 69.38655 17.57283 L 70.50711 19.95416 L 71.62766 22.46791 L 72.74821 25.11365 L 73.86876 27.89224 L 74.98932 30.80281 L 76.10986 33.84624 L 77.23042 37.02164 L 78.35097 40.3299 L 79.47153 43.77014 L 80.59207 47.34279 L 81.71263 51.04787 L 82.83318 54.88579 L 83.95374 58.85527 L 85.07428 62.95802 L 86.19484 67.19234 L 87.31538 71.55992 L 88.43594 76.05907 L 89.5565 80.69107 L 90.67705 85.45503 L 91.7976 90.3523 L 92.91815 95.38112 L 94.03871 100.54277 L 95.15926 105.83643 L 96.27982 111.26291 L 97.40036 116.82095 L 98.52092 122.51228 L 99.64146 128.3356 L 100.76202 134.29176 L 101.88257 140.37949 L 103.00313 146.60048 L 104.12367 152.95302 L 105.24423 159.43886  " fill="none"/>
 </g>
 </g>
 </g>
 </g>
 
                                   </g> 
</svg> 
