<?xml version="1.0" encoding="iso-8859-1" standalone="no"?> 
<?xml-stylesheet href="funcoes.css" type="text/css"?> 
<svg xmlns="http://www.w3.org/2000/svg" xmlns:xlink="http://www.w3.org/1999/xlink" width="200.16919pt" height="147.08513pt" viewBox="-57.50548 -28.85274 200.16919 147.08513 "> 
<g transform="translate(0, 118.23239 ) scale(1,-1) translate(0,28.85274 )"> 
                </p>
                <g stroke="#000" fill="#000">
 <g stroke-width="0.4">
 <g stroke-width="0.8">
 <path d=" M -56.90549 0.0 L 141.46373 0.0  " fill="none"/>
 <g transform="translate(141.86372,0.0)">
 <g stroke-dasharray="none" stroke-dashoffset="0.0">
 <g stroke-linecap="round">
 <g stroke-linejoin="round">
 <path d=" M -2.56 3.12257 C -2.0923 1.24901 -1.05006 0.3643 0.0 0.0 C -1.05006 -0.3643 -2.0923 -1.24901 -2.56 -3.12257  " fill="none"/>
 </g>
 </g>
 </g>
  </g>
 </g>
 <g stroke-width="0.8">
 <path d=" M 0.0 -28.45274 L 0.0 113.01099  " fill="none"/>
 <g transform="matrix(0.0,1.0,-1.0,0.0,0.0,113.41098)">
 <g stroke-dasharray="none" stroke-dashoffset="0.0">
 <g stroke-linecap="round">
 <g stroke-linejoin="round">
 <path d=" M -2.56 3.12257 C -2.0923 1.24901 -1.05006 0.3643 0.0 0.0 C -1.05006 -0.3643 -2.0923 -1.24901 -2.56 -3.12257  " fill="none"/>
 </g>
 </g>
 </g>
  </g>
 </g>
 <g stroke-width="1.2">
 <g stroke="#4bad31" fill="#4bad31">
 <path d=" M -56.90549 14.99612 L -51.0965 15.17021 L -45.2875 15.38425 L -39.47852 15.64735 L -33.66954 15.96906 L -27.86055 16.36414 L -22.05156 16.84822 L -16.24258 17.44214 L -10.4336 18.17065 L -4.6246 19.06415 L 1.18437 20.15822 L 6.99335 21.50192 L 12.80234 23.14998 L 18.61133 25.17096 L 24.4203 27.64998 L 30.2293 30.69037 L 36.03828 34.41975 L 41.84727 38.99313 L 47.65625 44.60284 L 53.46524 51.48332 L 59.27423 59.92198 L 65.0832 70.27223 L 70.8922 82.96559 L 76.70119 98.53654 L 82.51018 117.6324  " fill="none"/>
 </g>
 </g>
 <g stroke-width="0.8">
 <g stroke-dasharray="3.0,3.0" stroke-dashoffset="0.0">
 <path d=" M 28.45274 29.69441 L 71.13185 29.69441 L 71.13185 82.74825  " fill="none"/>
 <g transform="matrix(0.0,1.0,-1.0,0.0,71.13185,83.14824)">
 <g stroke-dasharray="none" stroke-dashoffset="0.0">
 <g stroke-linecap="round">
 <g stroke-linejoin="round">
 <path d=" M -2.56 3.12257 C -2.0923 1.24901 -1.05006 0.3643 0.0 0.0 C -1.05006 -0.3643 -2.0923 -1.24901 -2.56 -3.12257  " fill="none"/>
 </g>
 </g>
 </g>
  </g>
 </g>
 </g>
 </g>
 </g>
 
                                                       </g> 
</svg> 
