<?xml version="1.0" encoding="iso-8859-1" standalone="no"?> 
<?xml-stylesheet href="funcoes.css" type="text/css"?> 
<svg xmlns="http://www.w3.org/2000/svg" xmlns:xlink="http://www.w3.org/1999/xlink" width="244.64835pt" height="187.50752pt" viewBox="-2.59998 -102.18462 244.64835 187.50752 "> 
<g transform="translate(0, 85.3229 ) scale(1,-1) translate(0,102.18462 )"> 
 </p>
 <g stroke="#000" fill="#000">
 <g stroke-width="0.4">
 <path d=" M 0.0 0.0 L 70.73186 0.0  " fill="none"/>
 <g transform="translate(70.93185,0.0)">
 <g stroke-dasharray="none" stroke-dashoffset="0.0">
 <g stroke-linecap="round">
 <g stroke-linejoin="round">
 <path d=" M -2.07999 2.39998 C -1.69998 0.95998 -0.85318 0.28 0.0 0.0 C -0.85318 -0.28 -1.69998 -0.95998 -2.07999 -2.39998  " fill="none"/>
 </g>
 </g>
 </g>
  </g>
 <path d=" M 0.0 0.0 L 0.0 70.73186  " fill="none"/>
 <g transform="matrix(0.0,1.0,-1.0,0.0,0.0,70.93185)">
 <g stroke-dasharray="none" stroke-dashoffset="0.0">
 <g stroke-linecap="round">
 <g stroke-linejoin="round">
 <path d=" M -2.07999 2.39998 C -1.69998 0.95998 -0.85318 0.28 0.0 0.0 C -0.85318 -0.28 -1.69998 -0.95998 -2.07999 -2.39998  " fill="none"/>
 </g>
 </g>
 </g>
  </g>
 <path d=" M 5.69046 11.38092 L 8.06137 13.75183 L 10.43228 16.12276 L 12.8032 18.49367 L 15.17412 20.86458 L 17.54504 23.2355 L 19.91595 25.60641 L 22.28688 27.97734 L 24.65779 30.34825 L 27.02872 32.71918 L 29.39963 35.09009 L 31.77054 37.461 L 34.14146 39.83192 L 36.51237 42.20284 L 38.8833 44.57376 L 41.25421 46.94467 L 43.62514 49.3156 L 45.99605 51.68651 L 48.36696 54.05743 L 50.73788 56.42834 L 53.1088 58.79926 L 55.47972 61.17018 L 57.85063 63.54109 L 60.22156 65.91202 L 62.59247 68.28293  " fill="none"/>
 <g stroke-dasharray="3.0,3.0" stroke-dashoffset="0.0">
 <path d=" M 14.22636 19.91682 L 28.45274 19.91682 L 28.45274 33.74321  " fill="none"/>
 <g transform="matrix(0.0,1.0,-1.0,0.0,28.45274,33.9432)">
 <g stroke-dasharray="none" stroke-dashoffset="0.0">
 <g stroke-linecap="round">
 <g stroke-linejoin="round">
 <path d=" M -2.07999 2.39998 C -1.69998 0.95998 -0.85318 0.28 0.0 0.0 C -0.85318 -0.28 -1.69998 -0.95998 -2.07999 -2.39998  " fill="none"/>
 </g>
 </g>
 </g>
  </g>
 </g>
 <g stroke-dasharray="3.0,3.0" stroke-dashoffset="0.0">
 <path d=" M 28.45274 34.1432 L 42.67911 34.1432 L 42.67911 47.96957  " fill="none"/>
 <g transform="matrix(0.0,1.0,-1.0,0.0,42.67911,48.16957)">
 <g stroke-dasharray="none" stroke-dashoffset="0.0">
 <g stroke-linecap="round">
 <g stroke-linejoin="round">
 <path d=" M -2.07999 2.39998 C -1.69998 0.95998 -0.85318 0.28 0.0 0.0 C -0.85318 -0.28 -1.69998 -0.95998 -2.07999 -2.39998  " fill="none"/>
 </g>
 </g>
 </g>
  </g>
 </g>
 <g stroke-dasharray="3.0,3.0" stroke-dashoffset="0.0">
 <path d=" M 42.67911 48.36957 L 56.90549 48.36957 L 56.90549 62.19595  " fill="none"/>
 <g transform="matrix(0.0,1.0,-1.0,0.0,56.90549,62.39595)">
 <g stroke-dasharray="none" stroke-dashoffset="0.0">
 <g stroke-linecap="round">
 <g stroke-linejoin="round">
 <path d=" M -2.07999 2.39998 C -1.69998 0.95998 -0.85318 0.28 0.0 0.0 C -0.85318 -0.28 -1.69998 -0.95998 -2.07999 -2.39998  " fill="none"/>
 </g>
 </g>
 </g>
  </g>
 </g>
 <path d=" M 19.91682 18.4941 L 19.91682 21.33955  " fill="none"/>
 <path d=" M 34.1432 32.72047 L 34.1432 35.56592  " fill="none"/>
 <path d=" M 48.36957 46.94684 L 48.36957 49.7923  " fill="none"/>
 <path d=" M 21.33955 18.4941 L 21.33955 21.33955  " fill="none"/>
 <path d=" M 35.56592 32.72047 L 35.56592 35.56592  " fill="none"/>
 <path d=" M 49.7923 46.94684 L 49.7923 49.7923  " fill="none"/>
 <path d=" M 85.35826 0.0 L 156.09012 0.0  " fill="none"/>
 <g transform="translate(156.29012,0.0)">
 <g stroke-dasharray="none" stroke-dashoffset="0.0">
 <g stroke-linecap="round">
 <g stroke-linejoin="round">
 <path d=" M -2.07999 2.39998 C -1.69998 0.95998 -0.85318 0.28 0.0 0.0 C -0.85318 -0.28 -1.69998 -0.95998 -2.07999 -2.39998  " fill="none"/>
 </g>
 </g>
 </g>
  </g>
 <path d=" M 85.35826 0.0 L 85.35826 70.73186  " fill="none"/>
 <g transform="matrix(0.0,1.0,-1.0,0.0,85.35826,70.93185)">
 <g stroke-dasharray="none" stroke-dashoffset="0.0">
 <g stroke-linecap="round">
 <g stroke-linejoin="round">
 <path d=" M -2.07999 2.39998 C -1.69998 0.95998 -0.85318 0.28 0.0 0.0 C -0.85318 -0.28 -1.69998 -0.95998 -2.07999 -2.39998  " fill="none"/>
 </g>
 </g>
 </g>
  </g>
 <path d=" M 91.04872 10.42534 L 93.53816 11.37831 L 96.0276 12.41855 L 98.51704 13.55429 L 101.00648 14.79381 L 103.49593 16.14662 L 105.98537 17.62276 L 108.47481 19.2339 L 110.96425 20.99266 L 113.45369 22.91162 L 115.94313 25.0073 L 118.43257 27.29355 L 120.92201 29.78949 L 123.41145 32.51295 L 125.9009 35.48604 L 128.39034 38.73091 L 130.87978 42.27274 L 133.36922 46.13759 L 135.85866 50.35669 L 138.3481 54.96046 L 140.83754 59.98668 L 143.32698 65.47047 L 145.81642 71.4566 L 148.30586 77.99062 L 150.7953 85.12291  " fill="none"/>
 <g stroke-dasharray="3.0,3.0" stroke-dashoffset="0.0">
 <path d=" M 113.811 14.0731 L 113.811 22.80295  " fill="none"/>
 <g transform="matrix(0.0,1.0,-1.0,0.0,113.811,23.00294)">
 <g stroke-dasharray="none" stroke-dashoffset="0.0">
 <g stroke-linecap="round">
 <g stroke-linejoin="round">
 <path d=" M -2.07999 2.39998 C -1.69998 0.95998 -0.85318 0.28 0.0 0.0 C -0.85318 -0.28 -1.69998 -0.95998 -2.07999 -2.39998  " fill="none"/>
 </g>
 </g>
 </g>
  </g>
 </g>
 <g stroke-dasharray="3.0,3.0" stroke-dashoffset="0.0">
 <path d=" M 128.03737 23.20294 L 128.03737 37.85509  " fill="none"/>
 <g transform="matrix(0.0,1.0,-1.0,0.0,128.03737,38.05508)">
 <g stroke-dasharray="none" stroke-dashoffset="0.0">
 <g stroke-linecap="round">
 <g stroke-linejoin="round">
 <path d=" M -2.07999 2.39998 C -1.69998 0.95998 -0.85318 0.28 0.0 0.0 C -0.85318 -0.28 -1.69998 -0.95998 -2.07999 -2.39998  " fill="none"/>
 </g>
 </g>
 </g>
  </g>
 </g>
 <g stroke-dasharray="3.0,3.0" stroke-dashoffset="0.0">
 <path d=" M 142.26375 38.25508 L 142.26375 62.67178  " fill="none"/>
 <g transform="matrix(0.0,1.0,-1.0,0.0,142.26375,62.87178)">
 <g stroke-dasharray="none" stroke-dashoffset="0.0">
 <g stroke-linecap="round">
 <g stroke-linejoin="round">
 <path d=" M -2.07999 2.39998 C -1.69998 0.95998 -0.85318 0.28 0.0 0.0 C -0.85318 -0.28 -1.69998 -0.95998 -2.07999 -2.39998  " fill="none"/>
 </g>
 </g>
 </g>
  </g>
 </g>
 <g stroke-dasharray="3.0,3.0" stroke-dashoffset="0.0">
 <path d=" M 99.58463 14.0731 L 113.811 14.0731  " fill="none"/>
 </g>
 <g stroke-dasharray="3.0,3.0" stroke-dashoffset="0.0">
 <path d=" M 106.05527 15.61566 L 106.05527 12.53056  " fill="none"/>
 </g>
 <g stroke-dasharray="3.0,3.0" stroke-dashoffset="0.0">
 <path d=" M 107.34036 15.61566 L 107.34036 12.53056  " fill="none"/>
 </g>
 <g stroke-dasharray="3.0,3.0" stroke-dashoffset="0.0">
 <path d=" M 113.811 23.20294 L 128.03737 23.20294  " fill="none"/>
 </g>
 <g stroke-dasharray="3.0,3.0" stroke-dashoffset="0.0">
 <path d=" M 120.28163 24.7455 L 120.28163 21.66039  " fill="none"/>
 </g>
 <g stroke-dasharray="3.0,3.0" stroke-dashoffset="0.0">
 <path d=" M 121.56673 24.7455 L 121.56673 21.66039  " fill="none"/>
 </g>
 <g stroke-dasharray="3.0,3.0" stroke-dashoffset="0.0">
 <path d=" M 128.03737 38.25508 L 142.26375 38.25508  " fill="none"/>
 </g>
 <g stroke-dasharray="3.0,3.0" stroke-dashoffset="0.0">
 <path d=" M 134.50801 39.79762 L 134.50801 36.71252  " fill="none"/>
 </g>
 <g stroke-dasharray="3.0,3.0" stroke-dashoffset="0.0">
 <path d=" M 135.7931 39.79762 L 135.7931 36.71252  " fill="none"/>
 </g>
 <path d=" M 170.71652 0.0 L 241.44838 0.0  " fill="none"/>
 <g transform="translate(241.64838,0.0)">
 <g stroke-dasharray="none" stroke-dashoffset="0.0">
 <g stroke-linecap="round">
 <g stroke-linejoin="round">
 <path d=" M -2.07999 2.39998 C -1.69998 0.95998 -0.85318 0.28 0.0 0.0 C -0.85318 -0.28 -1.69998 -0.95998 -2.07999 -2.39998  " fill="none"/>
 </g>
 </g>
 </g>
  </g>
 <path d=" M 170.71652 0.0 L 170.71652 70.73186  " fill="none"/>
 <g transform="matrix(0.0,1.0,-1.0,0.0,170.71652,70.93185)">
 <g stroke-dasharray="none" stroke-dashoffset="0.0">
 <g stroke-linecap="round">
 <g stroke-linejoin="round">
 <path d=" M -2.07999 2.39998 C -1.69998 0.95998 -0.85318 0.28 0.0 0.0 C -0.85318 -0.28 -1.69998 -0.95998 -2.07999 -2.39998  " fill="none"/>
 </g>
 </g>
 </g>
  </g>
 <path d=" M 176.40698 11.14778 L 178.89642 21.43724 L 181.38586 28.995 L 183.8753 34.96288 L 186.36475 39.89357 L 188.85419 44.09488 L 191.34363 47.75264 L 193.83307 50.99359 L 196.32251 53.90504 L 198.81195 56.5434 L 201.30139 58.9612 L 203.79083 61.18755 L 206.28027 63.25238 L 208.76971 65.17656 L 211.25916 66.9796 L 213.7486 68.6741 L 216.23804 70.27483 L 218.72748 71.7896 L 221.21692 73.22708 L 223.70636 74.59814 L 226.1958 75.89886 L 228.68524 77.15314 L 231.17468 78.34923 L 233.66412 79.498 L 236.15356 80.60162  " fill="none"/>
 <g stroke-dasharray="3.0,3.0" stroke-dashoffset="0.0">
 <path d=" M 199.16927 37.18358 L 199.16927 56.5055  " fill="none"/>
 <g transform="matrix(0.0,1.0,-1.0,0.0,199.16927,56.70549)">
 <g stroke-dasharray="none" stroke-dashoffset="0.0">
 <g stroke-linecap="round">
 <g stroke-linejoin="round">
 <path d=" M -2.07999 2.39998 C -1.69998 0.95998 -0.85318 0.28 0.0 0.0 C -0.85318 -0.28 -1.69998 -0.95998 -2.07999 -2.39998  " fill="none"/>
 </g>
 </g>
 </g>
  </g>
 </g>
 <g stroke-dasharray="3.0,3.0" stroke-dashoffset="0.0">
 <path d=" M 213.39563 56.90549 L 213.39563 68.04227  " fill="none"/>
 <g transform="matrix(0.0,1.0,-1.0,0.0,213.39563,68.24226)">
 <g stroke-dasharray="none" stroke-dashoffset="0.0">
 <g stroke-linecap="round">
 <g stroke-linejoin="round">
 <path d=" M -2.07999 2.39998 C -1.69998 0.95998 -0.85318 0.28 0.0 0.0 C -0.85318 -0.28 -1.69998 -0.95998 -2.07999 -2.39998  " fill="none"/>
 </g>
 </g>
 </g>
  </g>
 </g>
 <g stroke-dasharray="3.0,3.0" stroke-dashoffset="0.0">
 <path d=" M 227.62201 68.44226 L 227.62201 76.22739  " fill="none"/>
 <g transform="matrix(0.0,1.0,-1.0,0.0,227.62201,76.42738)">
 <g stroke-dasharray="none" stroke-dashoffset="0.0">
 <g stroke-linecap="round">
 <g stroke-linejoin="round">
 <path d=" M -2.07999 2.39998 C -1.69998 0.95998 -0.85318 0.28 0.0 0.0 C -0.85318 -0.28 -1.69998 -0.95998 -2.07999 -2.39998  " fill="none"/>
 </g>
 </g>
 </g>
  </g>
 </g>
 <g stroke-dasharray="3.0,3.0" stroke-dashoffset="0.0">
 <path d=" M 184.94289 37.18358 L 199.16927 37.18358  " fill="none"/>
 </g>
 <g stroke-dasharray="3.0,3.0" stroke-dashoffset="0.0">
 <path d=" M 191.41353 38.72614 L 191.41353 35.64104  " fill="none"/>
 </g>
 <g stroke-dasharray="3.0,3.0" stroke-dashoffset="0.0">
 <path d=" M 192.69862 38.72614 L 192.69862 35.64104  " fill="none"/>
 </g>
 <g stroke-dasharray="3.0,3.0" stroke-dashoffset="0.0">
 <path d=" M 199.16927 56.90549 L 213.39563 56.90549  " fill="none"/>
 </g>
 <g stroke-dasharray="3.0,3.0" stroke-dashoffset="0.0">
 <path d=" M 205.6399 58.44803 L 205.6399 55.36293  " fill="none"/>
 </g>
 <g stroke-dasharray="3.0,3.0" stroke-dashoffset="0.0">
 <path d=" M 206.92499 58.44803 L 206.92499 55.36293  " fill="none"/>
 </g>
 <g stroke-dasharray="3.0,3.0" stroke-dashoffset="0.0">
 <path d=" M 213.39563 68.44226 L 227.62201 68.44226  " fill="none"/>
 </g>
 <g stroke-dasharray="3.0,3.0" stroke-dashoffset="0.0">
 <path d=" M 219.86627 69.98482 L 219.86627 66.89928  " fill="none"/>
 </g>
 <g stroke-dasharray="3.0,3.0" stroke-dashoffset="0.0">
 <path d=" M 221.15137 69.98482 L 221.15137 66.89928  " fill="none"/>
 </g>
 <path d=" M 0.0 -99.58464 L 70.73186 -99.58464  " fill="none"/>
 <g transform="translate(70.93185,-99.58464)">
 <g stroke-dasharray="none" stroke-dashoffset="0.0">
 <g stroke-linecap="round">
 <g stroke-linejoin="round">
 <path d=" M -2.07999 2.39998 C -1.69998 0.95998 -0.85318 0.28 0.0 0.0 C -0.85318 -0.28 -1.69998 -0.95998 -2.07999 -2.39998  " fill="none"/>
 </g>
 </g>
 </g>
  </g>
 <path d=" M 0.0 -99.58464 L 0.0 -28.85278  " fill="none"/>
 <g transform="matrix(0.0,1.0,-1.0,0.0,0.0,-28.65279)">
 <g stroke-dasharray="none" stroke-dashoffset="0.0">
 <g stroke-linecap="round">
 <g stroke-linejoin="round">
 <path d=" M -2.07999 2.39998 C -1.69998 0.95998 -0.85318 0.28 0.0 0.0 C -0.85318 -0.28 -1.69998 -0.95998 -2.07999 -2.39998  " fill="none"/>
 </g>
 </g>
 </g>
  </g>
 <path d=" M 5.69046 -34.14325 C 5.69046 -34.14325 6.10547 -34.55826 6.26485 -34.71764 C 6.42422 -34.87701 6.67986 -35.13264 6.83923 -35.29202 C 6.99861 -35.4514 7.25424 -35.70703 7.41362 -35.86641 C 7.573 -36.02579 7.82863 -36.28142 7.988 -36.4408 C 8.14738 -36.60017 8.40302 -36.8558 8.5624 -37.01518 C 8.72177 -37.17456 8.97739 -37.43019 9.13676 -37.58957 C 9.29614 -37.74895 9.55177 -38.00458 9.71115 -38.16396 C 9.87053 -38.32333 10.12616 -38.57896 10.28554 -38.73834 C 10.44492 -38.89772 10.70055 -39.15335 10.85992 -39.31273 C 11.0193 -39.4721 11.27493 -39.72774 11.43431 -39.88712 C 11.59369 -40.0465 11.84932 -40.30212 12.0087 -40.4615 C 12.16808 -40.62088 12.4237 -40.87651 12.58308 -41.03589 C 12.74246 -41.19527 12.9981 -41.4509 13.15747 -41.61028 C 13.31685 -41.76965 13.57248 -42.02528 13.73186 -42.18466 C 13.89124 -42.34404 14.14687 -42.59967 14.30624 -42.75905 C 14.46562 -42.91843 14.72125 -43.17406 14.88063 -43.33344 C 15.04001 -43.49281 15.29564 -43.74844 15.45502 -43.90782 C 15.6144 -44.0672 15.87003 -44.32283 16.0294 -44.48221 C 16.18878 -44.64159 16.44441 -44.89722 16.60379 -45.0566 C 16.76317 -45.21597 17.0188 -45.4716 17.17818 -45.63098 C 17.33755 -45.79036 17.59319 -46.04599 17.75256 -46.20537 C 17.91194 -46.36475 18.16757 -46.62038 18.32695 -46.77975 C 18.48633 -46.93913 18.74196 -47.19476 18.90134 -47.35414 C 19.06071 -47.51352 19.31635 -47.76915 19.47572 -47.92853 C 19.6351 -48.0879 19.89073 -48.34354 20.05011 -48.50291 C 20.20949 -48.6623 20.46512 -48.91792 20.6245 -49.0773 C 20.78387 -49.23668 21.0395 -49.49231 21.19888 -49.65169 C 21.35826 -49.81107 21.61389 -50.0667 21.77327 -50.22607 C 21.93265 -50.38545 22.18828 -50.64108 22.34766 -50.80046 C 22.50703 -50.95984 22.76266 -51.21547 22.92204 -51.37485 C 23.08142 -51.53423 23.33705 -51.78984 23.49643 -51.94922 C 23.6558 -52.1086 23.91144 -52.36423 24.07082 -52.5236 C 24.2302 -52.68298 24.48582 -52.93861 24.6452 -53.09799 C 24.80458 -53.25737 25.06021 -53.513 25.21959 -53.67238 C 25.37897 -53.83176 25.6346 -54.08739 25.79398 -54.24677 C 25.95335 -54.40614 26.20898 -54.66177 26.36836 -54.82115 C 26.52774 -54.98053 26.78337 -55.23616 26.94275 -55.39554 C 27.10213 -55.55492 27.35776 -55.81055 27.51714 -55.96992 C 27.67651 -56.1293 27.93214 -56.38493 28.09152 -56.54431 C 28.2509 -56.70369 28.50653 -56.95932 28.66591 -57.1187 C 28.82529 -57.27808 29.08092 -57.5337 29.2403 -57.69308 C 29.39967 -57.85246 29.6553 -58.1081 29.81468 -58.26747 C 29.97406 -58.42685 30.22969 -58.68248 30.38907 -58.84186 C 30.54845 -59.00124 30.80408 -59.25687 30.96346 -59.41624 C 31.12283 -59.57562 31.37846 -59.83125 31.53784 -59.99063 C 31.69722 -60.15001 31.95285 -60.40564 32.11223 -60.56502 C 32.2716 -60.7244 32.52724 -60.98003 32.68661 -61.1394 C 32.846 -61.29878 33.10162 -61.55441 33.261 -61.71379 C 33.42038 -61.87317 33.67601 -62.1288 33.83539 -62.28818 C 33.99477 -62.44756 34.2504 -62.70319 34.40977 -62.86256 C 34.56915 -63.02194 34.82478 -63.27757 34.98416 -63.43695 C 35.14354 -63.59633 35.39917 -63.85196 35.55855 -64.01134 C 35.71793 -64.17072 35.97356 -64.42635 36.13293 -64.58572 C 36.29231 -64.7451 36.54794 -65.00073 36.70732 -65.16011 C 36.8667 -65.31949 37.12231 -65.57512 37.2817 -65.7345 C 37.44107 -65.89388 37.6967 -66.1495 37.85608 -66.30888 C 38.01546 -66.46826 38.27109 -66.72389 38.43047 -66.88327 C 38.58984 -67.04265 38.84547 -67.29828 39.00485 -67.45766 C 39.16423 -67.61703 39.41986 -67.87267 39.57924 -68.03204 C 39.73862 -68.19142 39.99425 -68.44705 40.15363 -68.60643 C 40.313 -68.76581 40.56863 -69.02144 40.72801 -69.18082 C 40.88739 -69.3402 41.14302 -69.59583 41.3024 -69.7552 C 41.46178 -69.91458 41.7174 -70.17021 41.87679 -70.32959 C 42.03616 -70.48897 42.2918 -70.7446 42.45117 -70.90398 C 42.61055 -71.06335 42.86618 -71.31898 43.02556 -71.47836 C 43.18494 -71.63774 43.44057 -71.89337 43.59995 -72.05275 C 43.75932 -72.21213 44.01495 -72.46776 44.17433 -72.62714 C 44.33371 -72.78651 44.58934 -73.04214 44.74872 -73.20152 C 44.9081 -73.3609 45.16373 -73.61653 45.3231 -73.77591 C 45.48248 -73.93529 45.73811 -74.19092 45.89749 -74.3503 C 46.05687 -74.50967 46.3125 -74.7653 46.47188 -74.92468 C 46.63126 -75.08406 46.88689 -75.33969 47.04626 -75.49907 C 47.20564 -75.65845 47.46127 -75.91408 47.62065 -76.07346 C 47.78003 -76.23283 48.03566 -76.48846 48.19504 -76.64784 C 48.35442 -76.80722 48.61005 -77.06285 48.76942 -77.22223 C 48.9288 -77.3816 49.18443 -77.63724 49.34381 -77.79662 C 49.50319 -77.956 49.75882 -78.21162 49.9182 -78.371 C 50.07758 -78.53038 50.3332 -78.78601 50.49258 -78.94539 C 50.65196 -79.10477 50.9076 -79.3604 51.06697 -79.51978 C 51.22635 -79.67915 51.48198 -79.93477 51.64136 -80.09415 C 51.80074 -80.25352 52.05637 -80.50916 52.21574 -80.66853 C 52.37512 -80.82791 52.63075 -81.08354 52.79013 -81.24292 C 52.94951 -81.4023 53.20514 -81.65793 53.36452 -81.8173 C 53.5239 -81.97668 53.77953 -82.23232 53.9389 -82.3917 C 54.09828 -82.55107 54.35391 -82.8067 54.51329 -82.96608 C 54.67267 -83.12546 54.9283 -83.38109 55.08768 -83.54047 C 55.24706 -83.69984 55.50269 -83.95547 55.66206 -84.11485 C 55.82144 -84.27423 56.07707 -84.52986 56.23645 -84.68924 C 56.39583 -84.84862 56.65146 -85.10425 56.81084 -85.26363 C 56.97021 -85.423 57.22585 -85.67863 57.38522 -85.83801 C 57.5446 -85.99739 57.80023 -86.25302 57.95961 -86.4124 C 58.11899 -86.57178 58.37462 -86.82741 58.534 -86.98679 C 58.69337 -87.14616 58.949 -87.4018 59.10838 -87.56117 C 59.26776 -87.72055 59.52339 -87.97618 59.68277 -88.13556 C 59.84215 -88.29494 60.09778 -88.55057 60.25716 -88.70995 C 60.41653 -88.86932 60.67216 -89.12495 60.83154 -89.28433 C 60.99092 -89.44371 61.24655 -89.69934 61.40593 -89.85872 C 61.5653 -90.0181 61.82094 -90.27373 61.98032 -90.4331 C 62.1397 -90.59248 62.5547 -91.00749 62.5547 -91.00749  " fill="none"/>
 <g stroke-dasharray="3.0,3.0" stroke-dashoffset="0.0">
 <path d=" M 28.45274 -42.67915 L 28.45274 -56.50554  " fill="none"/>
 <g transform="matrix(0.0,-1.0,1.0,0.0,28.45274,-56.70554)">
 <g stroke-dasharray="none" stroke-dashoffset="0.0">
 <g stroke-linecap="round">
 <g stroke-linejoin="round">
 <path d=" M -2.07999 2.39998 C -1.69998 0.95998 -0.85318 0.28 0.0 0.0 C -0.85318 -0.28 -1.69998 -0.95998 -2.07999 -2.39998  " fill="none"/>
 </g>
 </g>
 </g>
  </g>
 </g>
 <g stroke-dasharray="3.0,3.0" stroke-dashoffset="0.0">
 <path d=" M 42.67911 -56.90553 L 42.67911 -70.7319  " fill="none"/>
 <g transform="matrix(0.0,-1.0,1.0,0.0,42.67911,-70.9319)">
 <g stroke-dasharray="none" stroke-dashoffset="0.0">
 <g stroke-linecap="round">
 <g stroke-linejoin="round">
 <path d=" M -2.07999 2.39998 C -1.69998 0.95998 -0.85318 0.28 0.0 0.0 C -0.85318 -0.28 -1.69998 -0.95998 -2.07999 -2.39998  " fill="none"/>
 </g>
 </g>
 </g>
  </g>
 </g>
 <g stroke-dasharray="3.0,3.0" stroke-dashoffset="0.0">
 <path d=" M 56.90549 -71.1319 L 56.90549 -84.95828  " fill="none"/>
 <g transform="matrix(0.0,-1.0,1.0,0.0,56.90549,-85.15828)">
 <g stroke-dasharray="none" stroke-dashoffset="0.0">
 <g stroke-linecap="round">
 <g stroke-linejoin="round">
 <path d=" M -2.07999 2.39998 C -1.69998 0.95998 -0.85318 0.28 0.0 0.0 C -0.85318 -0.28 -1.69998 -0.95998 -2.07999 -2.39998  " fill="none"/>
 </g>
 </g>
 </g>
  </g>
 </g>
 <g stroke-dasharray="3.0,3.0" stroke-dashoffset="0.0">
 <path d=" M 14.22636 -42.67915 L 28.45274 -42.67915  " fill="none"/>
 </g>
 <g stroke-dasharray="3.0,3.0" stroke-dashoffset="0.0">
 <path d=" M 20.697 -41.13661 L 20.697 -44.22171  " fill="none"/>
 </g>
 <g stroke-dasharray="3.0,3.0" stroke-dashoffset="0.0">
 <path d=" M 21.9821 -41.13661 L 21.9821 -44.22171  " fill="none"/>
 </g>
 <g stroke-dasharray="3.0,3.0" stroke-dashoffset="0.0">
 <path d=" M 28.45274 -56.90553 L 42.67911 -56.90553  " fill="none"/>
 </g>
 <g stroke-dasharray="3.0,3.0" stroke-dashoffset="0.0">
 <path d=" M 34.92337 -55.36298 L 34.92337 -58.44809  " fill="none"/>
 </g>
 <g stroke-dasharray="3.0,3.0" stroke-dashoffset="0.0">
 <path d=" M 36.20847 -55.36298 L 36.20847 -58.44809  " fill="none"/>
 </g>
 <g stroke-dasharray="3.0,3.0" stroke-dashoffset="0.0">
 <path d=" M 42.67911 -71.1319 L 56.90549 -71.1319  " fill="none"/>
 </g>
 <g stroke-dasharray="3.0,3.0" stroke-dashoffset="0.0">
 <path d=" M 49.14975 -69.58936 L 49.14975 -72.67445  " fill="none"/>
 </g>
 <g stroke-dasharray="3.0,3.0" stroke-dashoffset="0.0">
 <path d=" M 50.43484 -69.58936 L 50.43484 -72.67445  " fill="none"/>
 </g>
 <path d=" M 85.35826 -99.58464 L 156.09012 -99.58464  " fill="none"/>
 <g transform="translate(156.29012,-99.58464)">
 <g stroke-dasharray="none" stroke-dashoffset="0.0">
 <g stroke-linecap="round">
 <g stroke-linejoin="round">
 <path d=" M -2.07999 2.39998 C -1.69998 0.95998 -0.85318 0.28 0.0 0.0 C -0.85318 -0.28 -1.69998 -0.95998 -2.07999 -2.39998  " fill="none"/>
 </g>
 </g>
 </g>
  </g>
 <path d=" M 85.35826 -99.58464 L 85.35826 -28.85278  " fill="none"/>
 <g transform="matrix(0.0,1.0,-1.0,0.0,85.35826,-28.65279)">
 <g stroke-dasharray="none" stroke-dashoffset="0.0">
 <g stroke-linecap="round">
 <g stroke-linejoin="round">
 <path d=" M -2.07999 2.39998 C -1.69998 0.95998 -0.85318 0.28 0.0 0.0 C -0.85318 -0.28 -1.69998 -0.95998 -2.07999 -2.39998  " fill="none"/>
 </g>
 </g>
 </g>
  </g>
 <path d=" M 91.04872 -38.87814 L 93.24162 -39.71346 L 95.43454 -40.61519 L 97.62746 -41.58987 L 99.82037 -42.64226 L 102.01329 -43.77931 L 104.20619 -45.0071 L 106.39911 -46.33388 L 108.59203 -47.76614 L 110.78494 -49.31348 L 112.97786 -50.98497 L 115.17076 -52.79062 L 117.36368 -54.7404 L 119.5566 -56.84692 L 121.74951 -59.12146 L 123.94243 -61.57877 L 126.13535 -64.23276 L 128.32825 -67.09947 L 130.52116 -70.19586 L 132.71408 -73.54016 L 134.907 -77.15233 L 137.09991 -81.05493 L 139.29282 -85.2684 L 141.48573 -89.82095 L 143.67865 -94.73819  " fill="none"/>
 <g stroke-dasharray="3.0,3.0" stroke-dashoffset="0.0">
 <path d=" M 106.05527 -41.13661 L 106.05527 -44.22171  " fill="none"/>
 </g>
 <g stroke-dasharray="3.0,3.0" stroke-dashoffset="0.0">
 <path d=" M 107.34036 -41.13661 L 107.34036 -44.22171  " fill="none"/>
 </g>
 <g stroke-dasharray="3.0,3.0" stroke-dashoffset="0.0">
 <path d=" M 113.811 -42.52591 L 113.811 -51.25574  " fill="none"/>
 <g transform="matrix(0.0,-1.0,1.0,0.0,113.811,-51.45573)">
 <g stroke-dasharray="none" stroke-dashoffset="0.0">
 <g stroke-linecap="round">
 <g stroke-linejoin="round">
 <path d=" M -2.07999 2.39998 C -1.69998 0.95998 -0.85318 0.28 0.0 0.0 C -0.85318 -0.28 -1.69998 -0.95998 -2.07999 -2.39998  " fill="none"/>
 </g>
 </g>
 </g>
  </g>
 </g>
 <g stroke-dasharray="3.0,3.0" stroke-dashoffset="0.0">
 <path d=" M 128.03737 -51.65573 L 128.03737 -66.30788  " fill="none"/>
 <g transform="matrix(0.0,-1.0,1.0,0.0,128.03737,-66.50787)">
 <g stroke-dasharray="none" stroke-dashoffset="0.0">
 <g stroke-linecap="round">
 <g stroke-linejoin="round">
 <path d=" M -2.07999 2.39998 C -1.69998 0.95998 -0.85318 0.28 0.0 0.0 C -0.85318 -0.28 -1.69998 -0.95998 -2.07999 -2.39998  " fill="none"/>
 </g>
 </g>
 </g>
  </g>
 </g>
 <g stroke-dasharray="3.0,3.0" stroke-dashoffset="0.0">
 <path d=" M 142.26375 -66.70787 L 142.26375 -91.12457  " fill="none"/>
 <g transform="matrix(0.0,-1.0,1.0,0.0,142.26375,-91.32457)">
 <g stroke-dasharray="none" stroke-dashoffset="0.0">
 <g stroke-linecap="round">
 <g stroke-linejoin="round">
 <path d=" M -2.07999 2.39998 C -1.69998 0.95998 -0.85318 0.28 0.0 0.0 C -0.85318 -0.28 -1.69998 -0.95998 -2.07999 -2.39998  " fill="none"/>
 </g>
 </g>
 </g>
  </g>
 </g>
 <g stroke-dasharray="3.0,3.0" stroke-dashoffset="0.0">
 <path d=" M 113.811 -51.65573 L 128.03737 -51.65573  " fill="none"/>
 </g>
 <g stroke-dasharray="3.0,3.0" stroke-dashoffset="0.0">
 <path d=" M 120.28163 -50.11319 L 120.28163 -53.19829  " fill="none"/>
 </g>
 <g stroke-dasharray="3.0,3.0" stroke-dashoffset="0.0">
 <path d=" M 121.56673 -50.11319 L 121.56673 -53.19829  " fill="none"/>
 </g>
 <g stroke-dasharray="3.0,3.0" stroke-dashoffset="0.0">
 <path d=" M 128.03737 -66.70787 L 142.26375 -66.70787  " fill="none"/>
 </g>
 <g stroke-dasharray="3.0,3.0" stroke-dashoffset="0.0">
 <path d=" M 134.50801 -65.16531 L 134.50801 -68.25043  " fill="none"/>
 </g>
 <g stroke-dasharray="3.0,3.0" stroke-dashoffset="0.0">
 <path d=" M 135.7931 -65.16531 L 135.7931 -68.25043  " fill="none"/>
 </g>
 <g stroke-dasharray="3.0,3.0" stroke-dashoffset="0.0">
 <path d=" M 99.58463 -42.52591 L 113.811 -42.52591  " fill="none"/>
 </g>
 <path d=" M 170.71652 -99.58464 L 241.44838 -99.58464  " fill="none"/>
 <g transform="translate(241.64838,-99.58464)">
 <g stroke-dasharray="none" stroke-dashoffset="0.0">
 <g stroke-linecap="round">
 <g stroke-linejoin="round">
 <path d=" M -2.07999 2.39998 C -1.69998 0.95998 -0.85318 0.28 0.0 0.0 C -0.85318 -0.28 -1.69998 -0.95998 -2.07999 -2.39998  " fill="none"/>
 </g>
 </g>
 </g>
  </g>
 <path d=" M 170.71652 -99.58464 L 170.71652 -28.85278  " fill="none"/>
 <g transform="matrix(0.0,1.0,-1.0,0.0,170.71652,-28.65279)">
 <g stroke-dasharray="none" stroke-dashoffset="0.0">
 <g stroke-linecap="round">
 <g stroke-linejoin="round">
 <path d=" M -2.07999 2.39998 C -1.69998 0.95998 -0.85318 0.28 0.0 0.0 C -0.85318 -0.28 -1.69998 -0.95998 -2.07999 -2.39998  " fill="none"/>
 </g>
 </g>
 </g>
  </g>
 <path d=" M 181.2439 -22.68071 L 183.29483 -35.22299 L 185.34578 -44.24039 L 187.39673 -51.04793 L 189.44768 -56.36458 L 191.49861 -60.63058 L 193.54956 -64.12813 L 195.60051 -67.05086 L 197.65146 -69.52988 L 199.7024 -71.6581 L 201.75334 -73.50195 L 203.80429 -75.11832 L 205.85524 -76.54929 L 207.90619 -77.81831 L 209.95712 -78.95363 L 212.00807 -79.98083 L 214.05902 -80.90819 L 216.10997 -81.7535 L 218.1609 -82.52151 L 220.21185 -83.227 L 222.2628 -83.88171 L 224.31375 -84.48172 L 226.36469 -85.03961 L 228.41563 -85.55452 L 230.46658 -86.03555  " fill="none"/>
 <g stroke-dasharray="3.0,3.0" stroke-dashoffset="0.0">
 <path d=" M 199.16927 -42.67915 L 199.16927 -70.7319  " fill="none"/>
 <g transform="matrix(0.0,-1.0,1.0,0.0,199.16927,-70.9319)">
 <g stroke-dasharray="none" stroke-dashoffset="0.0">
 <g stroke-linecap="round">
 <g stroke-linejoin="round">
 <path d=" M -2.07999 2.39998 C -1.69998 0.95998 -0.85318 0.28 0.0 0.0 C -0.85318 -0.28 -1.69998 -0.95998 -2.07999 -2.39998  " fill="none"/>
 </g>
 </g>
 </g>
  </g>
 </g>
 <g stroke-dasharray="3.0,3.0" stroke-dashoffset="0.0">
 <path d=" M 213.39563 -71.1319 L 213.39563 -80.21602  " fill="none"/>
 <g transform="matrix(0.0,-1.0,1.0,0.0,213.39563,-80.41602)">
 <g stroke-dasharray="none" stroke-dashoffset="0.0">
 <g stroke-linecap="round">
 <g stroke-linejoin="round">
 <path d=" M -2.07999 2.39998 C -1.69998 0.95998 -0.85318 0.28 0.0 0.0 C -0.85318 -0.28 -1.69998 -0.95998 -2.07999 -2.39998  " fill="none"/>
 </g>
 </g>
 </g>
  </g>
 </g>
 <g stroke-dasharray="3.0,3.0" stroke-dashoffset="0.0">
 <path d=" M 227.62201 -80.61601 L 227.62201 -84.95828  " fill="none"/>
 <g transform="matrix(0.0,-1.0,1.0,0.0,227.62201,-85.15828)">
 <g stroke-dasharray="none" stroke-dashoffset="0.0">
 <g stroke-linecap="round">
 <g stroke-linejoin="round">
 <path d=" M -2.07999 2.39998 C -1.69998 0.95998 -0.85318 0.28 0.0 0.0 C -0.85318 -0.28 -1.69998 -0.95998 -2.07999 -2.39998  " fill="none"/>
 </g>
 </g>
 </g>
  </g>
 </g>
 <g stroke-dasharray="3.0,3.0" stroke-dashoffset="0.0">
 <path d=" M 191.41353 -41.13661 L 191.41353 -44.22171  " fill="none"/>
 </g>
 <g stroke-dasharray="3.0,3.0" stroke-dashoffset="0.0">
 <path d=" M 192.69862 -41.13661 L 192.69862 -44.22171  " fill="none"/>
 </g>
 <g stroke-dasharray="3.0,3.0" stroke-dashoffset="0.0">
 <path d=" M 199.16927 -71.1319 L 213.39563 -71.1319  " fill="none"/>
 </g>
 <g stroke-dasharray="3.0,3.0" stroke-dashoffset="0.0">
 <path d=" M 205.6399 -69.58936 L 205.6399 -72.67445  " fill="none"/>
 </g>
 <g stroke-dasharray="3.0,3.0" stroke-dashoffset="0.0">
 <path d=" M 206.92499 -69.58936 L 206.92499 -72.67445  " fill="none"/>
 </g>
 <g stroke-dasharray="3.0,3.0" stroke-dashoffset="0.0">
 <path d=" M 213.39563 -80.61601 L 227.62201 -80.61601  " fill="none"/>
 </g>
 <g stroke-dasharray="3.0,3.0" stroke-dashoffset="0.0">
 <path d=" M 219.86627 -79.07346 L 219.86627 -82.15855  " fill="none"/>
 </g>
 <g stroke-dasharray="3.0,3.0" stroke-dashoffset="0.0">
 <path d=" M 221.15137 -79.07346 L 221.15137 -82.15855  " fill="none"/>
 </g>
 <g stroke-dasharray="3.0,3.0" stroke-dashoffset="0.0">
 <path d=" M 184.94289 -42.67915 L 199.16927 -42.67915  " fill="none"/>
 </g>
 </g>
 </g>
 
                                                                   </g> 
</svg> 
