<?xml version="1.0" encoding="iso-8859-1" standalone="no"?> 
<?xml-stylesheet href="funcoes.css" type="text/css"?> 
<svg xmlns="http://www.w3.org/2000/svg" xmlns:xlink="http://www.w3.org/1999/xlink" width="173.11646pt" height="45.0791pt" viewBox="-29.65274 -1.2 173.11646 45.0791 "> 
<g transform="translate(0, 43.8791 ) scale(1,-1) translate(0,1.2 )"> 
        </p><g stroke="#000" fill="#000">
 <g stroke-width="0.4">
 <g fill="#000">
 <path d=" M 0.0 0.0 M 1.0 0.0 C 1.0 0.55229 0.55229 1.0 0.0 1.0 C -0.55229 1.0 -1.0 0.55229 -1.0 0.0 C -1.0 -0.55229 -0.55229 -1.0 0.0 -1.0 C 0.55229 -1.0 1.0 -0.55229 1.0 0.0 Z M 0.0 0.0  " />
 </g>
 <g fill="#000">
 <path d=" M 14.22636 0.0 M 15.22636 0.0 C 15.22636 0.55229 14.77866 1.0 14.22636 1.0 C 13.67407 1.0 13.22636 0.55229 13.22636 0.0 C 13.22636 -0.55229 13.67407 -1.0 14.22636 -1.0 C 14.77866 -1.0 15.22636 -0.55229 15.22636 0.0 Z M 14.22636 0.0  " />
 </g>
 <g fill="#000">
 <path d=" M 14.22636 14.22636 M 15.22636 14.22636 C 15.22636 14.77866 14.77866 15.22636 14.22636 15.22636 C 13.67407 15.22636 13.22636 14.77866 13.22636 14.22636 C 13.22636 13.67407 13.67407 13.22636 14.22636 13.22636 C 14.77866 13.22636 15.22636 13.67407 15.22636 14.22636 Z M 14.22636 14.22636  " />
 </g>
 <g fill="#000">
 <path d=" M 0.0 14.22636 M 1.0 14.22636 C 1.0 14.77866 0.55229 15.22636 0.0 15.22636 C -0.55229 15.22636 -1.0 14.77866 -1.0 14.22636 C -1.0 13.67407 -0.55229 13.22636 0.0 13.22636 C 0.55229 13.22636 1.0 13.67407 1.0 14.22636 Z M 0.0 14.22636  " />
 </g>
 <g fill="#000">
 <path d=" M 42.67911 0.0 M 43.67911 0.0 C 43.67911 0.55229 43.2314 1.0 42.67911 1.0 C 42.12682 1.0 41.67911 0.55229 41.67911 0.0 C 41.67911 -0.55229 42.12682 -1.0 42.67911 -1.0 C 43.2314 -1.0 43.67911 -0.55229 43.67911 0.0 Z M 42.67911 0.0  " />
 </g>
 <g fill="#000">
 <path d=" M 56.90549 0.0 M 57.90549 0.0 C 57.90549 0.55229 57.45778 1.0 56.90549 1.0 C 56.3532 1.0 55.90549 0.55229 55.90549 0.0 C 55.90549 -0.55229 56.3532 -1.0 56.90549 -1.0 C 57.45778 -1.0 57.90549 -0.55229 57.90549 0.0 Z M 56.90549 0.0  " />
 </g>
 <g fill="#000">
 <path d=" M 56.90549 14.22636 M 57.90549 14.22636 C 57.90549 14.77866 57.45778 15.22636 56.90549 15.22636 C 56.3532 15.22636 55.90549 14.77866 55.90549 14.22636 C 55.90549 13.67407 56.3532 13.22636 56.90549 13.22636 C 57.45778 13.22636 57.90549 13.67407 57.90549 14.22636 Z M 56.90549 14.22636  " />
 </g>
 <g fill="#000">
 <path d=" M 42.67911 14.22636 M 43.67911 14.22636 C 43.67911 14.77866 43.2314 15.22636 42.67911 15.22636 C 42.12682 15.22636 41.67911 14.77866 41.67911 14.22636 C 41.67911 13.67407 42.12682 13.22636 42.67911 13.22636 C 43.2314 13.22636 43.67911 13.67407 43.67911 14.22636 Z M 42.67911 14.22636  " />
 </g>
 <g fill="#000">
 <path d=" M 71.13185 0.0 M 72.13185 0.0 C 72.13185 0.55229 71.68414 1.0 71.13185 1.0 C 70.57956 1.0 70.13185 0.55229 70.13185 0.0 C 70.13185 -0.55229 70.57956 -1.0 71.13185 -1.0 C 71.68414 -1.0 72.13185 -0.55229 72.13185 0.0 Z M 71.13185 0.0  " />
 </g>
 <g fill="#000">
 <path d=" M 71.13185 28.45274 M 72.13185 28.45274 C 72.13185 29.00504 71.68414 29.45274 71.13185 29.45274 C 70.57956 29.45274 70.13185 29.00504 70.13185 28.45274 C 70.13185 27.90045 70.57956 27.45274 71.13185 27.45274 C 71.68414 27.45274 72.13185 27.90045 72.13185 28.45274 Z M 71.13185 28.45274  " />
 </g>
 <g fill="#000">
 <path d=" M 42.67911 28.45274 M 43.67911 28.45274 C 43.67911 29.00504 43.2314 29.45274 42.67911 29.45274 C 42.12682 29.45274 41.67911 29.00504 41.67911 28.45274 C 41.67911 27.90045 42.12682 27.45274 42.67911 27.45274 C 43.2314 27.45274 43.67911 27.90045 43.67911 28.45274 Z M 42.67911 28.45274  " />
 </g>
 <g fill="#000">
 <path d=" M 56.90549 28.45274 M 57.90549 28.45274 C 57.90549 29.00504 57.45778 29.45274 56.90549 29.45274 C 56.3532 29.45274 55.90549 29.00504 55.90549 28.45274 C 55.90549 27.90045 56.3532 27.45274 56.90549 27.45274 C 57.45778 27.45274 57.90549 27.90045 57.90549 28.45274 Z M 56.90549 28.45274  " />
 </g>
 <g fill="#000">
 <path d=" M 71.13185 14.22636 M 72.13185 14.22636 C 72.13185 14.77866 71.68414 15.22636 71.13185 15.22636 C 70.57956 15.22636 70.13185 14.77866 70.13185 14.22636 C 70.13185 13.67407 70.57956 13.22636 71.13185 13.22636 C 71.68414 13.22636 72.13185 13.67407 72.13185 14.22636 Z M 71.13185 14.22636  " />
 </g>
 <g fill="#000">
 <path d=" M 99.5846 0.0 M 100.5846 0.0 C 100.5846 0.55229 100.13689 1.0 99.5846 1.0 C 99.0323 1.0 98.5846 0.55229 98.5846 0.0 C 98.5846 -0.55229 99.0323 -1.0 99.5846 -1.0 C 100.13689 -1.0 100.5846 -0.55229 100.5846 0.0 Z M 99.5846 0.0  " />
 </g>
 <g fill="#000">
 <path d=" M 113.81097 0.0 M 114.81097 0.0 C 114.81097 0.55229 114.36327 1.0 113.81097 1.0 C 113.25868 1.0 112.81097 0.55229 112.81097 0.0 C 112.81097 -0.55229 113.25868 -1.0 113.81097 -1.0 C 114.36327 -1.0 114.81097 -0.55229 114.81097 0.0 Z M 113.81097 0.0  " />
 </g>
 <g fill="#000">
 <path d=" M 113.81097 14.22636 M 114.81097 14.22636 C 114.81097 14.77866 114.36327 15.22636 113.81097 15.22636 C 113.25868 15.22636 112.81097 14.77866 112.81097 14.22636 C 112.81097 13.67407 113.25868 13.22636 113.81097 13.22636 C 114.36327 13.22636 114.81097 13.67407 114.81097 14.22636 Z M 113.81097 14.22636  " />
 </g>
 <g fill="#000">
 <path d=" M 99.5846 14.22636 M 100.5846 14.22636 C 100.5846 14.77866 100.13689 15.22636 99.5846 15.22636 C 99.0323 15.22636 98.5846 14.77866 98.5846 14.22636 C 98.5846 13.67407 99.0323 13.22636 99.5846 13.22636 C 100.13689 13.22636 100.5846 13.67407 100.5846 14.22636 Z M 99.5846 14.22636  " />
 </g>
 <g fill="#000">
 <path d=" M 128.03734 0.0 M 129.03734 0.0 C 129.03734 0.55229 128.58963 1.0 128.03734 1.0 C 127.48505 1.0 127.03734 0.55229 127.03734 0.0 C 127.03734 -0.55229 127.48505 -1.0 128.03734 -1.0 C 128.58963 -1.0 129.03734 -0.55229 129.03734 0.0 Z M 128.03734 0.0  " />
 </g>
 <g fill="#000">
 <path d=" M 128.03734 28.45274 M 129.03734 28.45274 C 129.03734 29.00504 128.58963 29.45274 128.03734 29.45274 C 127.48505 29.45274 127.03734 29.00504 127.03734 28.45274 C 127.03734 27.90045 127.48505 27.45274 128.03734 27.45274 C 128.58963 27.45274 129.03734 27.90045 129.03734 28.45274 Z M 128.03734 28.45274  " />
 </g>
 <g fill="#000">
 <path d=" M 99.5846 28.45274 M 100.5846 28.45274 C 100.5846 29.00504 100.13689 29.45274 99.5846 29.45274 C 99.0323 29.45274 98.5846 29.00504 98.5846 28.45274 C 98.5846 27.90045 99.0323 27.45274 99.5846 27.45274 C 100.13689 27.45274 100.5846 27.90045 100.5846 28.45274 Z M 99.5846 28.45274  " />
 </g>
 <g fill="#000">
 <path d=" M 142.26372 0.0 M 143.26372 0.0 C 143.26372 0.55229 142.81601 1.0 142.26372 1.0 C 141.71143 1.0 141.26372 0.55229 141.26372 0.0 C 141.26372 -0.55229 141.71143 -1.0 142.26372 -1.0 C 142.81601 -1.0 143.26372 -0.55229 143.26372 0.0 Z M 142.26372 0.0  " />
 </g>
 <g fill="#000">
 <path d=" M 142.26372 42.67911 M 143.26372 42.67911 C 143.26372 43.2314 142.81601 43.67911 142.26372 43.67911 C 141.71143 43.67911 141.26372 43.2314 141.26372 42.67911 C 141.26372 42.12682 141.71143 41.67911 142.26372 41.67911 C 142.81601 41.67911 143.26372 42.12682 143.26372 42.67911 Z M 142.26372 42.67911  " />
 </g>
 <g fill="#000">
 <path d=" M 99.5846 42.67911 M 100.5846 42.67911 C 100.5846 43.2314 100.13689 43.67911 99.5846 43.67911 C 99.0323 43.67911 98.5846 43.2314 98.5846 42.67911 C 98.5846 42.12682 99.0323 41.67911 99.5846 41.67911 C 100.13689 41.67911 100.5846 42.12682 100.5846 42.67911 Z M 99.5846 42.67911  " />
 </g>
 <g fill="#000">
 <path d=" M 113.81097 28.45274 M 114.81097 28.45274 C 114.81097 29.00504 114.36327 29.45274 113.81097 29.45274 C 113.25868 29.45274 112.81097 29.00504 112.81097 28.45274 C 112.81097 27.90045 113.25868 27.45274 113.81097 27.45274 C 114.36327 27.45274 114.81097 27.90045 114.81097 28.45274 Z M 113.81097 28.45274  " />
 </g>
 <g fill="#000">
 <path d=" M 128.03734 14.22636 M 129.03734 14.22636 C 129.03734 14.77866 128.58963 15.22636 128.03734 15.22636 C 127.48505 15.22636 127.03734 14.77866 127.03734 14.22636 C 127.03734 13.67407 127.48505 13.22636 128.03734 13.22636 C 128.58963 13.22636 129.03734 13.67407 129.03734 14.22636 Z M 128.03734 14.22636  " />
 </g>
 <g fill="#000">
 <path d=" M 142.26372 14.22636 M 143.26372 14.22636 C 143.26372 14.77866 142.81601 15.22636 142.26372 15.22636 C 141.71143 15.22636 141.26372 14.77866 141.26372 14.22636 C 141.26372 13.67407 141.71143 13.22636 142.26372 13.22636 C 142.81601 13.22636 143.26372 13.67407 143.26372 14.22636 Z M 142.26372 14.22636  " />
 </g>
 <g fill="#000">
 <path d=" M 142.26372 28.45274 M 143.26372 28.45274 C 143.26372 29.00504 142.81601 29.45274 142.26372 29.45274 C 141.71143 29.45274 141.26372 29.00504 141.26372 28.45274 C 141.26372 27.90045 141.71143 27.45274 142.26372 27.45274 C 142.81601 27.45274 143.26372 27.90045 143.26372 28.45274 Z M 142.26372 28.45274  " />
 </g>
 <g fill="#000">
 <path d=" M 128.03734 42.67911 M 129.03734 42.67911 C 129.03734 43.2314 128.58963 43.67911 128.03734 43.67911 C 127.48505 43.67911 127.03734 43.2314 127.03734 42.67911 C 127.03734 42.12682 127.48505 41.67911 128.03734 41.67911 C 128.58963 41.67911 129.03734 42.12682 129.03734 42.67911 Z M 128.03734 42.67911  " />
 </g>
 <g fill="#000">
 <path d=" M 113.81097 42.67911 M 114.81097 42.67911 C 114.81097 43.2314 114.36327 43.67911 113.81097 43.67911 C 113.25868 43.67911 112.81097 43.2314 112.81097 42.67911 C 112.81097 42.12682 113.25868 41.67911 113.81097 41.67911 C 114.36327 41.67911 114.81097 42.12682 114.81097 42.67911 Z M 113.81097 42.67911  " />
 </g>
 <g fill="#000">
 <path d=" M -28.45274 0.0 M -27.45274 0.0 C -27.45274 0.55229 -27.90045 1.0 -28.45274 1.0 C -29.00504 1.0 -29.45274 0.55229 -29.45274 0.0 C -29.45274 -0.55229 -29.00504 -1.0 -28.45274 -1.0 C -27.90045 -1.0 -27.45274 -0.55229 -27.45274 0.0 Z M -28.45274 0.0  " />
 </g>
 </g>
 </g>
                                        </g> 
</svg> 
